<svg width="803" height="1077" viewBox="0 0 803 1077" fill="none" xmlns="http://www.w3.org/2000/svg">
<path d="M674 139.5V148.5" stroke="black" stroke-width="2"/>
<path d="M674 160V169" stroke="black" stroke-width="2"/>
<path d="M559 163V172" stroke="black" stroke-width="2"/>
<path d="M559 232V241" stroke="black" stroke-width="2"/>
<path d="M674 181V190" stroke="black" stroke-width="2"/>
<path d="M559 184V193" stroke="black" stroke-width="2"/>
<path d="M559 208V217" stroke="black" stroke-width="2"/>
<path d="M674 203V212" stroke="black" stroke-width="2"/>
<path d="M674 224V233" stroke="black" stroke-width="2"/>
<path d="M674 245V254" stroke="black" stroke-width="2"/>
<path d="M674 267V276" stroke="black" stroke-width="2"/>
<path d="M674 288V297" stroke="black" stroke-width="2"/>
<path d="M674 309V318" stroke="black" stroke-width="2"/>
<path d="M674 331V340" stroke="black" stroke-width="2"/>
<path d="M674 352V361" stroke="black" stroke-width="2"/>
<path d="M674 373V382" stroke="black" stroke-width="2"/>
<path d="M674 395V404" stroke="black" stroke-width="2"/>
<path d="M674 416V425" stroke="black" stroke-width="2"/>
<path d="M674 437V446" stroke="black" stroke-width="2"/>
<path d="M674 459V468" stroke="black" stroke-width="2"/>
<path d="M674 480V489" stroke="black" stroke-width="2"/>
<path d="M674 501V510" stroke="black" stroke-width="2"/>
<path d="M674 522V531" stroke="black" stroke-width="2"/>
<path d="M508 525V534" stroke="black" stroke-width="2"/>
<path d="M508 545V554" stroke="black" stroke-width="2"/>
<path d="M508 566V575" stroke="black" stroke-width="2"/>
<path d="M508 586V595" stroke="black" stroke-width="2"/>
<path d="M508 605L508 611" stroke="black" stroke-width="2"/>
<path d="M674 543V552" stroke="black" stroke-width="2"/>
<path d="M674 565V574" stroke="black" stroke-width="2"/>
<path d="M674 586V595" stroke="black" stroke-width="2"/>
<path d="M674 629V638" stroke="black" stroke-width="2"/>
<path d="M394 638V647" stroke="black" stroke-width="2"/>
<path d="M394 659V668" stroke="black" stroke-width="2"/>
<path d="M394 679V688" stroke="black" stroke-width="2"/>
<path d="M394 699V708" stroke="black" stroke-width="2"/>
<path d="M394 720V729" stroke="black" stroke-width="2"/>
<path d="M394 740V749" stroke="black" stroke-width="2"/>
<path d="M674 650V659" stroke="black" stroke-width="2"/>
<path d="M674 671V680" stroke="black" stroke-width="2"/>
<path d="M674 693V702" stroke="black" stroke-width="2"/>
<path d="M674 714V723" stroke="black" stroke-width="2"/>
<path d="M674 736V745" stroke="black" stroke-width="2"/>
<path d="M674 757V766" stroke="black" stroke-width="2"/>
<path d="M674 778V787" stroke="black" stroke-width="2"/>
<path d="M370 1068V1077" stroke="black" stroke-width="2"/>
<path d="M674 800V809" stroke="black" stroke-width="2"/>
<path d="M69 96H802.5" stroke="#CBCDD3" stroke-dasharray="7 7"/>
<path d="M738 7L738 887" stroke="#CBCDD3" stroke-dasharray="7 7"/>
<path d="M537 7L537 887" stroke="#CBCDD3" stroke-dasharray="7 7"/>
<path d="M337 7L337 887" stroke="#CBCDD3" stroke-dasharray="7 7"/>
<path d="M137 7L137 887" stroke="#CBCDD3" stroke-dasharray="7 7"/>
<path d="M69 309H802.5" stroke="#CBCDD3" stroke-dasharray="7 7"/>
<path d="M69 509H802.5" stroke="#CBCDD3" stroke-dasharray="7 7"/>
<path d="M69 709H802.5" stroke="#CBCDD3" stroke-dasharray="7 7"/>
<g filter="url(#filter0_d_13_380)">
<mask id="path-56-inside-1_13_380" fill="white">
<path d="M740 13C740 9.13401 743.134 6 747 6H803V269H747C743.134 269 740 265.866 740 262V13Z"/>
</mask>
<path d="M740 13C740 9.13401 743.134 6 747 6H803V269H747C743.134 269 740 265.866 740 262V13Z" fill="#37B8EA"/>
<path d="M736 13C736 6.92487 740.925 2 747 2H803V10H747C745.343 10 744 11.3431 744 13H736ZM803 273H747C740.925 273 736 268.075 736 262H744C744 263.657 745.343 265 747 265H803V273ZM747 273C740.925 273 736 268.075 736 262V13C736 6.92487 740.925 2 747 2V10C745.343 10 744 11.3431 744 13V262C744 263.657 745.343 265 747 265V273ZM803 6V269V6Z" fill="white" mask="url(#path-56-inside-1_13_380)"/>
</g>
<circle cx="739.5" cy="132.5" r="6.5" fill="white" stroke="black" stroke-width="2"/>
<g filter="url(#filter1_d_13_380)">
<rect x="395" y="344" width="165" height="163" rx="7" fill="#FCE441"/>
<rect x="397" y="346" width="161" height="159" rx="5" stroke="white" stroke-width="4"/>
</g>
<g filter="url(#filter2_d_13_380)">
<rect x="361" y="759" width="65" height="64" rx="7" fill="#EC4699"/>
<rect x="363" y="761" width="61" height="60" rx="5" stroke="white" stroke-width="4"/>
</g>
<path d="M403.427 783.578C403.181 783.328 402.871 783.149 402.531 783.061C402.191 782.973 401.834 782.979 401.497 783.078L385.407 787.727C385.057 787.822 384.741 788.014 384.496 788.282C384.251 788.549 384.088 788.881 384.024 789.238C383.984 789.644 384.056 790.054 384.232 790.423C384.408 790.791 384.682 791.104 385.024 791.328L390.057 794.4C390.308 794.554 390.603 794.618 390.895 794.584C391.187 794.549 391.458 794.417 391.666 794.209L397.427 788.448C397.496 788.377 397.578 788.32 397.669 788.281C397.76 788.242 397.858 788.222 397.957 788.222C398.056 788.222 398.154 788.242 398.245 788.281C398.336 788.32 398.418 788.377 398.487 788.448C398.626 788.589 398.705 788.78 398.705 788.978C398.705 789.176 398.626 789.367 398.487 789.508L392.716 795.269C392.508 795.477 392.376 795.748 392.341 796.04C392.306 796.332 392.37 796.627 392.523 796.878L395.597 801.928C395.796 802.247 396.081 802.503 396.418 802.667C396.756 802.831 397.134 802.897 397.507 802.857C397.884 802.811 398.239 802.656 398.528 802.411C398.818 802.166 399.03 801.841 399.137 801.477L403.907 785.508C404.008 785.173 404.017 784.817 403.933 784.477C403.848 784.137 403.673 783.827 403.427 783.578" fill="#032840"/>
<path opacity="0.4" d="M389.026 802.569C388.886 802.428 388.807 802.238 388.807 802.039C388.807 801.84 388.886 801.65 389.026 801.509L390.391 800.143C390.532 800.006 390.722 799.931 390.918 799.932C391.115 799.934 391.303 800.013 391.442 800.152C391.581 800.291 391.66 800.479 391.662 800.675C391.664 800.872 391.589 801.061 391.452 801.203L390.086 802.569C389.945 802.709 389.755 802.788 389.556 802.788C389.357 802.788 389.167 802.709 389.026 802.569V802.569ZM388.242 798.781C388.102 798.64 388.023 798.45 388.023 798.251C388.023 798.052 388.102 797.862 388.242 797.721L389.607 796.354C389.748 796.213 389.939 796.134 390.137 796.134C390.336 796.134 390.527 796.213 390.668 796.354C390.809 796.495 390.888 796.686 390.888 796.885C390.888 797.083 390.809 797.274 390.668 797.415L389.302 798.781C389.161 798.921 388.971 799 388.772 799C388.573 799 388.383 798.921 388.242 798.781V798.781ZM384.481 797.588C384.341 797.447 384.262 797.257 384.262 797.058C384.262 796.859 384.341 796.669 384.481 796.528L385.846 795.162C385.987 795.021 386.178 794.942 386.376 794.942C386.575 794.942 386.766 795.021 386.907 795.162C387.048 795.303 387.127 795.494 387.127 795.693C387.127 795.891 387.048 796.082 386.907 796.223L385.541 797.588C385.4 797.728 385.21 797.807 385.011 797.807C384.812 797.807 384.622 797.728 384.481 797.588V797.588Z" fill="#032840"/>
<g filter="url(#filter3_d_13_380)">
<rect x="610" y="825" width="126" height="124" rx="7" fill="#4C90F2"/>
<rect x="612" y="827" width="122" height="120" rx="5" stroke="white" stroke-width="4"/>
</g>
<circle cx="446.5" cy="342.5" r="6.5" fill="white" stroke="black" stroke-width="2"/>
<circle cx="508.5" cy="507.5" r="6.5" fill="white" stroke="black" stroke-width="2"/>
<g filter="url(#filter4_d_13_380)">
<rect x="30" y="133" width="306" height="376" rx="10" fill="white"/>
</g>
<path d="M82.0387 216.32C82.0387 211.24 88.831 209.924 96.881 209.924C104.887 209.924 111.721 211.194 111.721 216.273C111.721 221.353 104.933 222.667 96.881 222.667C88.8753 222.667 82.0387 221.397 82.0387 216.32ZM115.872 217.253C116.017 215.119 115.499 212.992 114.389 211.163C113.279 209.333 111.632 207.891 109.672 207.033C109.65 207.025 109.632 207.01 109.62 206.99C109.607 206.97 109.602 206.947 109.605 206.924C109.61 206.907 109.62 206.893 109.633 206.882C109.646 206.872 109.662 206.865 109.679 206.863C112.219 206.817 114.756 207.039 117.249 207.526C118.258 207.605 119.233 207.921 120.097 208.448C120.961 208.975 121.689 209.698 122.221 210.559C122.513 211.167 122.665 211.833 122.665 212.507C122.665 213.182 122.513 213.848 122.221 214.456C121.145 216.789 117.685 217.533 116.339 217.722H116.276C116.218 217.72 116.162 217.706 116.11 217.682C116.058 217.657 116.012 217.622 115.974 217.579C115.936 217.536 115.907 217.486 115.888 217.432C115.87 217.377 115.863 217.32 115.867 217.263L115.872 217.253ZM77.6637 217.732C76.3197 217.538 72.857 216.798 71.7837 214.465C71.4894 213.858 71.3366 213.192 71.3366 212.518C71.3366 211.843 71.4894 211.178 71.7837 210.571C72.3138 209.708 73.0402 208.982 73.9039 208.453C74.7675 207.924 75.744 207.606 76.7537 207.526C79.2469 207.043 81.7838 206.822 84.323 206.865C84.3398 206.867 84.3558 206.873 84.3691 206.883C84.3823 206.894 84.3923 206.908 84.3977 206.924C84.4005 206.947 84.3956 206.97 84.3838 206.991C84.372 207.011 84.354 207.027 84.3323 207.036C82.3721 207.893 80.7246 209.335 79.6153 211.164C78.5059 212.994 77.9889 215.121 78.135 217.256C78.1436 217.315 78.1395 217.376 78.1229 217.434C78.1064 217.491 78.0777 217.545 78.0389 217.591C78.0001 217.637 77.952 217.674 77.8977 217.7C77.8435 217.726 77.7844 217.74 77.7243 217.741L77.6637 217.732ZM87.06 195.21C87.06 192.605 88.0948 190.107 89.9369 188.265C91.7789 186.423 94.2772 185.388 96.8822 185.388C99.4872 185.388 101.985 186.423 103.827 188.265C105.67 190.107 106.704 192.605 106.704 195.21C106.704 197.815 105.67 200.314 103.827 202.156C101.985 203.998 99.4872 205.032 96.8822 205.032C94.2772 205.032 91.7789 203.998 89.9369 202.156C88.0948 200.314 87.06 197.815 87.06 195.21V195.21ZM109.98 203.631C109.603 203.622 109.226 203.585 108.853 203.522C108.792 203.511 108.735 203.486 108.686 203.448C108.637 203.41 108.599 203.36 108.574 203.303C108.55 203.246 108.54 203.184 108.545 203.122C108.551 203.061 108.572 203.002 108.606 202.95C110.135 200.66 110.935 197.96 110.899 195.206C110.864 192.453 109.995 189.774 108.408 187.524C108.378 187.489 108.359 187.446 108.352 187.4C108.345 187.354 108.352 187.308 108.37 187.265C108.418 187.204 108.487 187.163 108.564 187.151C109.107 187.038 109.661 186.981 110.216 186.981C111.493 186.99 112.751 187.293 113.893 187.865C115.034 188.437 116.03 189.264 116.801 190.282C117.573 191.299 118.101 192.48 118.345 193.734C118.588 194.988 118.54 196.281 118.205 197.513C117.744 199.279 116.707 200.84 115.257 201.949C113.808 203.058 112.029 203.651 110.204 203.634L109.98 203.631ZM75.7947 197.513C75.4596 196.281 75.412 194.988 75.6554 193.734C75.8988 192.48 76.4267 191.299 77.1986 190.282C77.9704 189.264 78.9655 188.437 80.1073 187.865C81.249 187.293 82.5069 186.99 83.784 186.981C84.3398 186.981 84.8941 187.039 85.4383 187.151C85.5139 187.165 85.582 187.205 85.6297 187.265C85.6495 187.307 85.6566 187.354 85.65 187.399C85.6433 187.445 85.6233 187.488 85.5923 187.522C84.0042 189.772 83.1354 192.451 83.1004 195.206C83.0654 197.96 83.8659 200.66 85.3963 202.95C85.4307 203.002 85.4516 203.061 85.457 203.123C85.4624 203.185 85.4522 203.247 85.4274 203.304C85.4026 203.361 85.3638 203.411 85.3148 203.449C85.2657 203.487 85.2079 203.512 85.1467 203.522C84.7742 203.586 84.3975 203.623 84.0197 203.631H83.7863C81.9635 203.646 80.188 203.052 78.7406 201.944C77.2932 200.836 76.2566 199.277 75.7947 197.513V197.513Z" fill="#02273D"/>
<rect x="69" y="394" width="228" height="75" rx="10" fill="#02273D"/>
<path d="M90.78 271.468L86.974 287H83.146L80.242 275.736L77.316 287H73.51L69.704 271.468H73.07L75.446 283.502L78.526 271.468H81.936L85.038 283.502L87.414 271.468H90.78ZM104.364 280.444C104.364 280.752 104.327 281.104 104.254 281.5H95.3221C95.3661 282.585 95.6595 283.385 96.2021 283.898C96.7448 284.411 97.4195 284.668 98.2261 284.668C98.9448 284.668 99.5388 284.492 100.008 284.14C100.492 283.788 100.8 283.311 100.932 282.71H104.21C104.049 283.561 103.704 284.323 103.176 284.998C102.648 285.673 101.966 286.201 101.13 286.582C100.309 286.963 99.3921 287.154 98.3801 287.154C97.1921 287.154 96.1361 286.905 95.2121 286.406C94.2881 285.893 93.5695 285.167 93.0561 284.228C92.5428 283.289 92.2861 282.182 92.2861 280.906C92.2861 279.63 92.5428 278.523 93.0561 277.584C93.5695 276.631 94.2881 275.905 95.2121 275.406C96.1361 274.907 97.1921 274.658 98.3801 274.658C99.5828 274.658 100.631 274.907 101.526 275.406C102.435 275.905 103.132 276.594 103.616 277.474C104.115 278.339 104.364 279.329 104.364 280.444ZM101.24 280.136C101.284 279.139 101.02 278.383 100.448 277.87C99.8908 277.357 99.2015 277.1 98.3801 277.1C97.5441 277.1 96.8401 277.357 96.2681 277.87C95.6961 278.383 95.3808 279.139 95.3221 280.136H101.24ZM120.817 283.876H114.591L113.491 287H110.213L115.933 271.644H119.475L125.173 287H121.895L120.817 283.876ZM119.981 281.522L117.693 274.966L115.405 281.522H119.981ZM129.949 277.144C130.404 276.367 131.005 275.758 131.753 275.318C132.501 274.863 133.337 274.636 134.261 274.636V277.958H133.359C131.086 277.958 129.949 279.014 129.949 281.126V287H126.847V274.812H129.949V277.144ZM147.44 280.444C147.44 280.752 147.404 281.104 147.33 281.5H138.398C138.442 282.585 138.736 283.385 139.278 283.898C139.821 284.411 140.496 284.668 141.302 284.668C142.021 284.668 142.615 284.492 143.084 284.14C143.568 283.788 143.876 283.311 144.008 282.71H147.286C147.125 283.561 146.78 284.323 146.252 284.998C145.724 285.673 145.042 286.201 144.206 286.582C143.385 286.963 142.468 287.154 141.456 287.154C140.268 287.154 139.212 286.905 138.288 286.406C137.364 285.893 136.646 285.167 136.132 284.228C135.619 283.289 135.362 282.182 135.362 280.906C135.362 279.63 135.619 278.523 136.132 277.584C136.646 276.631 137.364 275.905 138.288 275.406C139.212 274.907 140.268 274.658 141.456 274.658C142.659 274.658 143.708 274.907 144.602 275.406C145.512 275.905 146.208 276.594 146.692 277.474C147.191 278.339 147.44 279.329 147.44 280.444ZM144.316 280.136C144.36 279.139 144.096 278.383 143.524 277.87C142.967 277.357 142.278 277.1 141.456 277.1C140.62 277.1 139.916 277.357 139.344 277.87C138.772 278.383 138.457 279.139 138.398 280.136H144.316ZM166.951 271.468L161.693 281.566V287H158.569V281.566L153.289 271.468H156.853L160.153 278.266L163.453 271.468H166.951ZM174.245 274.658C175.433 274.658 176.496 274.907 177.435 275.406C178.388 275.905 179.136 276.631 179.679 277.584C180.222 278.523 180.493 279.63 180.493 280.906C180.493 282.182 180.222 283.289 179.679 284.228C179.136 285.167 178.388 285.893 177.435 286.406C176.496 286.905 175.433 287.154 174.245 287.154C173.057 287.154 171.986 286.905 171.033 286.406C170.094 285.893 169.354 285.167 168.811 284.228C168.268 283.289 167.997 282.182 167.997 280.906C167.997 279.63 168.268 278.523 168.811 277.584C169.354 276.631 170.094 275.905 171.033 275.406C171.986 274.907 173.057 274.658 174.245 274.658ZM174.245 277.342C173.38 277.342 172.646 277.65 172.045 278.266C171.444 278.867 171.143 279.747 171.143 280.906C171.143 282.065 171.444 282.952 172.045 283.568C172.646 284.169 173.38 284.47 174.245 284.47C175.11 284.47 175.844 284.169 176.445 283.568C177.046 282.952 177.347 282.065 177.347 280.906C177.347 279.747 177.046 278.867 176.445 278.266C175.844 277.65 175.11 277.342 174.245 277.342ZM194.345 274.812V287H191.243V284.536C190.921 285.357 190.385 286.003 189.637 286.472C188.904 286.927 188.053 287.154 187.085 287.154C185.677 287.154 184.555 286.692 183.719 285.768C182.883 284.844 182.465 283.553 182.465 281.896V274.812H185.545V281.544C185.545 282.512 185.795 283.267 186.293 283.81C186.792 284.338 187.467 284.602 188.317 284.602C189.212 284.602 189.923 284.316 190.451 283.744C190.979 283.172 191.243 282.351 191.243 281.28V274.812H194.345ZM200.268 277.144C200.722 276.367 201.324 275.758 202.072 275.318C202.82 274.863 203.656 274.636 204.58 274.636V277.958H203.678C201.404 277.958 200.268 279.014 200.268 281.126V287H197.166V274.812H200.268V277.144ZM77.69 301.248C79.142 301.248 80.4547 301.585 81.628 302.26C82.816 302.935 83.7473 303.881 84.422 305.098C85.1113 306.301 85.456 307.665 85.456 309.19C85.456 310.715 85.1113 312.087 84.422 313.304C83.7473 314.521 82.816 315.467 81.628 316.142C80.4547 316.817 79.142 317.154 77.69 317.154C76.238 317.154 74.918 316.817 73.73 316.142C72.5567 315.467 71.6253 314.521 70.936 313.304C70.2613 312.087 69.924 310.715 69.924 309.19C69.924 307.665 70.2613 306.301 70.936 305.098C71.6253 303.881 72.5567 302.935 73.73 302.26C74.918 301.585 76.238 301.248 77.69 301.248ZM77.69 304.108C76.7807 304.108 75.9813 304.313 75.292 304.724C74.6027 305.135 74.06 305.729 73.664 306.506C73.2827 307.269 73.092 308.163 73.092 309.19C73.092 310.217 73.2827 311.119 73.664 311.896C74.06 312.659 74.6027 313.245 75.292 313.656C75.9813 314.067 76.7807 314.272 77.69 314.272C78.5993 314.272 79.3987 314.067 80.088 313.656C80.7773 313.245 81.3127 312.659 81.694 311.896C82.09 311.119 82.288 310.217 82.288 309.19C82.288 308.163 82.09 307.269 81.694 306.506C81.3127 305.729 80.7773 305.135 80.088 304.724C79.3987 304.313 78.5993 304.108 77.69 304.108ZM95.0489 304.636C96.4569 304.636 97.5789 305.098 98.4149 306.022C99.2509 306.946 99.6689 308.244 99.6689 309.916V317H96.5889V310.268C96.5889 309.3 96.3395 308.552 95.8409 308.024C95.3422 307.481 94.6602 307.21 93.7949 307.21C92.9149 307.21 92.2109 307.496 91.6829 308.068C91.1549 308.64 90.8909 309.461 90.8909 310.532V317H87.7889V304.812H90.8909V307.254C91.2135 306.433 91.7415 305.795 92.4749 305.34C93.2229 304.871 94.0809 304.636 95.0489 304.636ZM113.86 310.444C113.86 310.752 113.824 311.104 113.75 311.5H104.818C104.862 312.585 105.156 313.385 105.698 313.898C106.241 314.411 106.916 314.668 107.722 314.668C108.441 314.668 109.035 314.492 109.504 314.14C109.988 313.788 110.296 313.311 110.428 312.71H113.706C113.545 313.561 113.2 314.323 112.672 314.998C112.144 315.673 111.462 316.201 110.626 316.582C109.805 316.963 108.888 317.154 107.876 317.154C106.688 317.154 105.632 316.905 104.708 316.406C103.784 315.893 103.066 315.167 102.552 314.228C102.039 313.289 101.782 312.182 101.782 310.906C101.782 309.63 102.039 308.523 102.552 307.584C103.066 306.631 103.784 305.905 104.708 305.406C105.632 304.907 106.688 304.658 107.876 304.658C109.079 304.658 110.128 304.907 111.022 305.406C111.932 305.905 112.628 306.594 113.112 307.474C113.611 308.339 113.86 309.329 113.86 310.444ZM110.736 310.136C110.78 309.139 110.516 308.383 109.944 307.87C109.387 307.357 108.698 307.1 107.876 307.1C107.04 307.1 106.336 307.357 105.764 307.87C105.192 308.383 104.877 309.139 104.818 310.136H110.736ZM131.523 312.754C131.523 313.546 131.325 314.279 130.929 314.954C130.533 315.614 129.947 316.149 129.169 316.56C128.392 316.956 127.446 317.154 126.331 317.154C125.231 317.154 124.249 316.971 123.383 316.604C122.518 316.223 121.821 315.68 121.293 314.976C120.78 314.272 120.487 313.451 120.413 312.512H123.713C123.787 313.143 124.036 313.671 124.461 314.096C124.901 314.507 125.481 314.712 126.199 314.712C126.845 314.712 127.336 314.543 127.673 314.206C128.025 313.854 128.201 313.407 128.201 312.864C128.201 312.38 128.062 311.984 127.783 311.676C127.505 311.353 127.153 311.097 126.727 310.906C126.302 310.715 125.715 310.495 124.967 310.246C123.999 309.923 123.207 309.608 122.591 309.3C121.975 308.977 121.447 308.515 121.007 307.914C120.582 307.313 120.369 306.528 120.369 305.56C120.369 304.225 120.846 303.177 121.799 302.414C122.767 301.637 124.043 301.248 125.627 301.248C127.27 301.248 128.575 301.644 129.543 302.436C130.526 303.228 131.083 304.284 131.215 305.604H127.871C127.783 305.047 127.549 304.592 127.167 304.24C126.786 303.873 126.265 303.69 125.605 303.69C125.033 303.69 124.571 303.844 124.219 304.152C123.867 304.445 123.691 304.878 123.691 305.45C123.691 305.905 123.823 306.286 124.087 306.594C124.366 306.887 124.711 307.129 125.121 307.32C125.547 307.511 126.119 307.723 126.837 307.958C127.835 308.31 128.641 308.64 129.257 308.948C129.888 309.256 130.423 309.718 130.863 310.334C131.303 310.95 131.523 311.757 131.523 312.754ZM140.32 314.338V317H138.692C137.328 317 136.28 316.67 135.546 316.01C134.828 315.35 134.468 314.25 134.468 312.71V307.43H132.774V304.812H134.468V301.798H137.57V304.812H140.298V307.43H137.57V312.754C137.57 313.341 137.688 313.751 137.922 313.986C138.157 314.221 138.553 314.338 139.11 314.338H140.32ZM148.185 304.658C149.373 304.658 150.436 304.907 151.375 305.406C152.328 305.905 153.076 306.631 153.619 307.584C154.161 308.523 154.433 309.63 154.433 310.906C154.433 312.182 154.161 313.289 153.619 314.228C153.076 315.167 152.328 315.893 151.375 316.406C150.436 316.905 149.373 317.154 148.185 317.154C146.997 317.154 145.926 316.905 144.973 316.406C144.034 315.893 143.293 315.167 142.751 314.228C142.208 313.289 141.937 312.182 141.937 310.906C141.937 309.63 142.208 308.523 142.751 307.584C143.293 306.631 144.034 305.905 144.973 305.406C145.926 304.907 146.997 304.658 148.185 304.658ZM148.185 307.342C147.319 307.342 146.586 307.65 145.985 308.266C145.383 308.867 145.083 309.747 145.083 310.906C145.083 312.065 145.383 312.952 145.985 313.568C146.586 314.169 147.319 314.47 148.185 314.47C149.05 314.47 149.783 314.169 150.385 313.568C150.986 312.952 151.287 312.065 151.287 310.906C151.287 309.747 150.986 308.867 150.385 308.266C149.783 307.65 149.05 307.342 148.185 307.342ZM163.907 304.658C164.933 304.658 165.857 304.907 166.679 305.406C167.5 305.905 168.138 306.631 168.593 307.584C169.062 308.523 169.297 309.63 169.297 310.906C169.297 312.182 169.062 313.297 168.593 314.25C168.138 315.189 167.5 315.907 166.679 316.406C165.857 316.905 164.933 317.154 163.907 317.154C162.88 317.154 162 316.912 161.267 316.428C160.548 315.929 160.035 315.269 159.727 314.448V322.808H156.625V304.812H159.727V307.342C160.035 306.521 160.548 305.868 161.267 305.384C162 304.9 162.88 304.658 163.907 304.658ZM162.939 307.364C162 307.364 161.223 307.687 160.607 308.332C160.005 308.963 159.705 309.821 159.705 310.906C159.705 311.977 160.005 312.835 160.607 313.48C161.223 314.111 162 314.426 162.939 314.426C163.907 314.426 164.684 314.118 165.271 313.502C165.857 312.871 166.151 312.006 166.151 310.906C166.151 309.806 165.857 308.941 165.271 308.31C164.684 307.679 163.907 307.364 162.939 307.364ZM81.078 342.754C81.078 343.546 80.88 344.279 80.484 344.954C80.088 345.614 79.5013 346.149 78.724 346.56C77.9467 346.956 77.0007 347.154 75.886 347.154C74.786 347.154 73.8033 346.971 72.938 346.604C72.0727 346.223 71.376 345.68 70.848 344.976C70.3347 344.272 70.0413 343.451 69.968 342.512H73.268C73.3413 343.143 73.5907 343.671 74.016 344.096C74.456 344.507 75.0353 344.712 75.754 344.712C76.3993 344.712 76.8907 344.543 77.228 344.206C77.58 343.854 77.756 343.407 77.756 342.864C77.756 342.38 77.6167 341.984 77.338 341.676C77.0593 341.353 76.7073 341.097 76.282 340.906C75.8567 340.715 75.27 340.495 74.522 340.246C73.554 339.923 72.762 339.608 72.146 339.3C71.53 338.977 71.002 338.515 70.562 337.914C70.1367 337.313 69.924 336.528 69.924 335.56C69.924 334.225 70.4007 333.177 71.354 332.414C72.322 331.637 73.598 331.248 75.182 331.248C76.8247 331.248 78.13 331.644 79.098 332.436C80.0807 333.228 80.638 334.284 80.77 335.604H77.426C77.338 335.047 77.1033 334.592 76.722 334.24C76.3407 333.873 75.82 333.69 75.16 333.69C74.588 333.69 74.126 333.844 73.774 334.152C73.422 334.445 73.246 334.878 73.246 335.45C73.246 335.905 73.378 336.286 73.642 336.594C73.9207 336.887 74.2653 337.129 74.676 337.32C75.1013 337.511 75.6733 337.723 76.392 337.958C77.3893 338.31 78.196 338.64 78.812 338.948C79.4427 339.256 79.978 339.718 80.418 340.334C80.858 340.95 81.078 341.757 81.078 342.754ZM88.9951 334.658C90.1831 334.658 91.2464 334.907 92.1851 335.406C93.1384 335.905 93.8864 336.631 94.4291 337.584C94.9717 338.523 95.2431 339.63 95.2431 340.906C95.2431 342.182 94.9717 343.289 94.4291 344.228C93.8864 345.167 93.1384 345.893 92.1851 346.406C91.2464 346.905 90.1831 347.154 88.9951 347.154C87.8071 347.154 86.7364 346.905 85.7831 346.406C84.8444 345.893 84.1037 345.167 83.5611 344.228C83.0184 343.289 82.7471 342.182 82.7471 340.906C82.7471 339.63 83.0184 338.523 83.5611 337.584C84.1037 336.631 84.8444 335.905 85.7831 335.406C86.7364 334.907 87.8071 334.658 88.9951 334.658ZM88.9951 337.342C88.1297 337.342 87.3964 337.65 86.7951 338.266C86.1937 338.867 85.8931 339.747 85.8931 340.906C85.8931 342.065 86.1937 342.952 86.7951 343.568C87.3964 344.169 88.1297 344.47 88.9951 344.47C89.8604 344.47 90.5937 344.169 91.1951 343.568C91.7964 342.952 92.0971 342.065 92.0971 340.906C92.0971 339.747 91.7964 338.867 91.1951 338.266C90.5937 337.65 89.8604 337.342 88.9951 337.342ZM100.537 330.72V347H97.4353V330.72H100.537ZM115.004 334.812V347H111.902V344.536C111.579 345.357 111.044 346.003 110.296 346.472C109.562 346.927 108.712 347.154 107.744 347.154C106.336 347.154 105.214 346.692 104.378 345.768C103.542 344.844 103.124 343.553 103.124 341.896V334.812H106.204V341.544C106.204 342.512 106.453 343.267 106.952 343.81C107.45 344.338 108.125 344.602 108.976 344.602C109.87 344.602 110.582 344.316 111.11 343.744C111.638 343.172 111.902 342.351 111.902 341.28V334.812H115.004ZM124.336 344.338V347H122.708C121.344 347 120.295 346.67 119.562 346.01C118.843 345.35 118.484 344.25 118.484 342.71V337.43H116.79V334.812H118.484V331.798H121.586V334.812H124.314V337.43H121.586V342.754C121.586 343.341 121.703 343.751 121.938 343.986C122.173 344.221 122.569 344.338 123.126 344.338H124.336ZM126.216 331.314C126.216 330.815 126.392 330.412 126.744 330.104C127.096 329.781 127.558 329.62 128.13 329.62C128.702 329.62 129.164 329.781 129.516 330.104C129.868 330.412 130.044 330.815 130.044 331.314C130.044 331.798 129.868 332.201 129.516 332.524C129.164 332.832 128.702 332.986 128.13 332.986C127.558 332.986 127.096 332.832 126.744 332.524C126.392 332.201 126.216 331.798 126.216 331.314ZM129.67 334.812V347H126.568V334.812H129.67ZM138.108 334.658C139.296 334.658 140.36 334.907 141.298 335.406C142.252 335.905 143 336.631 143.542 337.584C144.085 338.523 144.356 339.63 144.356 340.906C144.356 342.182 144.085 343.289 143.542 344.228C143 345.167 142.252 345.893 141.298 346.406C140.36 346.905 139.296 347.154 138.108 347.154C136.92 347.154 135.85 346.905 134.896 346.406C133.958 345.893 133.217 345.167 132.674 344.228C132.132 343.289 131.86 342.182 131.86 340.906C131.86 339.63 132.132 338.523 132.674 337.584C133.217 336.631 133.958 335.905 134.896 335.406C135.85 334.907 136.92 334.658 138.108 334.658ZM138.108 337.342C137.243 337.342 136.51 337.65 135.908 338.266C135.307 338.867 135.006 339.747 135.006 340.906C135.006 342.065 135.307 342.952 135.908 343.568C136.51 344.169 137.243 344.47 138.108 344.47C138.974 344.47 139.707 344.169 140.308 343.568C140.91 342.952 141.21 342.065 141.21 340.906C141.21 339.747 140.91 338.867 140.308 338.266C139.707 337.65 138.974 337.342 138.108 337.342ZM153.809 334.636C155.217 334.636 156.339 335.098 157.175 336.022C158.011 336.946 158.429 338.244 158.429 339.916V347H155.349V340.268C155.349 339.3 155.099 338.552 154.601 338.024C154.102 337.481 153.42 337.21 152.555 337.21C151.675 337.21 150.971 337.496 150.443 338.068C149.915 338.64 149.651 339.461 149.651 340.532V347H146.549V334.812H149.651V337.254C149.973 336.433 150.501 335.795 151.235 335.34C151.983 334.871 152.841 334.636 153.809 334.636Z" fill="#032840"/>
<path d="M160.23 424.468V435.424C160.23 436.92 159.812 438.086 158.976 438.922C158.155 439.743 157.011 440.154 155.544 440.154C153.96 440.154 152.706 439.699 151.782 438.79C150.858 437.881 150.396 436.583 150.396 434.896H153.454C153.454 435.688 153.615 436.297 153.938 436.722C154.275 437.147 154.767 437.36 155.412 437.36C155.999 437.36 156.431 437.191 156.71 436.854C156.989 436.502 157.128 436.025 157.128 435.424V424.468H160.23ZM170.227 424.248C171.679 424.248 172.992 424.585 174.165 425.26C175.353 425.935 176.284 426.881 176.959 428.098C177.648 429.301 177.993 430.665 177.993 432.19C177.993 433.715 177.648 435.087 176.959 436.304C176.284 437.521 175.353 438.467 174.165 439.142C172.992 439.817 171.679 440.154 170.227 440.154C168.775 440.154 167.455 439.817 166.267 439.142C165.094 438.467 164.162 437.521 163.473 436.304C162.798 435.087 162.461 433.715 162.461 432.19C162.461 430.665 162.798 429.301 163.473 428.098C164.162 426.881 165.094 425.935 166.267 425.26C167.455 424.585 168.775 424.248 170.227 424.248ZM170.227 427.108C169.318 427.108 168.518 427.313 167.829 427.724C167.14 428.135 166.597 428.729 166.201 429.506C165.82 430.269 165.629 431.163 165.629 432.19C165.629 433.217 165.82 434.119 166.201 434.896C166.597 435.659 167.14 436.245 167.829 436.656C168.518 437.067 169.318 437.272 170.227 437.272C171.136 437.272 171.936 437.067 172.625 436.656C173.314 436.245 173.85 435.659 174.231 434.896C174.627 434.119 174.825 433.217 174.825 432.19C174.825 431.163 174.627 430.269 174.231 429.506C173.85 428.729 173.314 428.135 172.625 427.724C171.936 427.313 171.136 427.108 170.227 427.108ZM183.428 424.468V440H180.326V424.468H183.428ZM199.39 440H196.288L189.336 429.44V440H186.234V424.468H189.336L196.288 435.116V424.468H199.39V440ZM209.98 424.468V433.576C209.98 434.793 210.244 435.71 210.772 436.326C211.315 436.927 212.092 437.228 213.104 437.228C214.101 437.228 214.864 436.927 215.392 436.326C215.935 435.71 216.206 434.793 216.206 433.576V424.468H219.286V433.576C219.286 435.013 219.015 436.231 218.472 437.228C217.944 438.211 217.203 438.944 216.25 439.428C215.311 439.912 214.241 440.154 213.038 440.154C211.175 440.154 209.687 439.597 208.572 438.482C207.457 437.367 206.9 435.732 206.9 433.576V424.468H209.98ZM232.676 435.754C232.676 436.546 232.478 437.279 232.082 437.954C231.686 438.614 231.099 439.149 230.322 439.56C229.544 439.956 228.598 440.154 227.484 440.154C226.384 440.154 225.401 439.971 224.536 439.604C223.67 439.223 222.974 438.68 222.446 437.976C221.932 437.272 221.639 436.451 221.566 435.512H224.866C224.939 436.143 225.188 436.671 225.614 437.096C226.054 437.507 226.633 437.712 227.352 437.712C227.997 437.712 228.488 437.543 228.826 437.206C229.178 436.854 229.354 436.407 229.354 435.864C229.354 435.38 229.214 434.984 228.936 434.676C228.657 434.353 228.305 434.097 227.88 433.906C227.454 433.715 226.868 433.495 226.12 433.246C225.152 432.923 224.36 432.608 223.744 432.3C223.128 431.977 222.6 431.515 222.16 430.914C221.734 430.313 221.522 429.528 221.522 428.56C221.522 427.225 221.998 426.177 222.952 425.414C223.92 424.637 225.196 424.248 226.78 424.248C228.422 424.248 229.728 424.644 230.696 425.436C231.678 426.228 232.236 427.284 232.368 428.604H229.024C228.936 428.047 228.701 427.592 228.32 427.24C227.938 426.873 227.418 426.69 226.758 426.69C226.186 426.69 225.724 426.844 225.372 427.152C225.02 427.445 224.844 427.878 224.844 428.45C224.844 428.905 224.976 429.286 225.24 429.594C225.518 429.887 225.863 430.129 226.274 430.32C226.699 430.511 227.271 430.723 227.99 430.958C228.987 431.31 229.794 431.64 230.41 431.948C231.04 432.256 231.576 432.718 232.016 433.334C232.456 433.95 232.676 434.757 232.676 435.754Z" fill="white"/>
<g filter="url(#filter5_d_13_380)">
<rect x="395" y="80" width="105" height="104" rx="7" fill="#C280D2"/>
<rect x="397" y="82" width="101" height="100" rx="5" stroke="white" stroke-width="4"/>
</g>
<path d="M427.725 137.175C427.725 138.075 427.5 138.908 427.05 139.675C426.6 140.425 425.933 141.033 425.05 141.5C424.167 141.95 423.092 142.175 421.825 142.175C420.575 142.175 419.458 141.967 418.475 141.55C417.492 141.117 416.7 140.5 416.1 139.7C415.517 138.9 415.183 137.967 415.1 136.9H418.85C418.933 137.617 419.217 138.217 419.7 138.7C420.2 139.167 420.858 139.4 421.675 139.4C422.408 139.4 422.967 139.208 423.35 138.825C423.75 138.425 423.95 137.917 423.95 137.3C423.95 136.75 423.792 136.3 423.475 135.95C423.158 135.583 422.758 135.292 422.275 135.075C421.792 134.858 421.125 134.608 420.275 134.325C419.175 133.958 418.275 133.6 417.575 133.25C416.875 132.883 416.275 132.358 415.775 131.675C415.292 130.992 415.05 130.1 415.05 129C415.05 127.483 415.592 126.292 416.675 125.425C417.775 124.542 419.225 124.1 421.025 124.1C422.892 124.1 424.375 124.55 425.475 125.45C426.592 126.35 427.225 127.55 427.375 129.05H423.575C423.475 128.417 423.208 127.9 422.775 127.5C422.342 127.083 421.75 126.875 421 126.875C420.35 126.875 419.825 127.05 419.425 127.4C419.025 127.733 418.825 128.225 418.825 128.875C418.825 129.392 418.975 129.825 419.275 130.175C419.592 130.508 419.983 130.783 420.45 131C420.933 131.217 421.583 131.458 422.4 131.725C423.533 132.125 424.45 132.5 425.15 132.85C425.867 133.2 426.475 133.725 426.975 134.425C427.475 135.125 427.725 136.042 427.725 137.175ZM441.072 138.45H433.997L432.747 142H429.022L435.522 124.55H439.547L446.022 142H442.297L441.072 138.45ZM440.122 135.775L437.522 128.325L434.922 135.775H440.122ZM458.674 138.45H451.599L450.349 142H446.624L453.124 124.55H457.149L463.624 142H459.899L458.674 138.45ZM457.724 135.775L455.124 128.325L452.524 135.775H457.724ZM477.652 137.175C477.652 138.075 477.427 138.908 476.977 139.675C476.527 140.425 475.86 141.033 474.977 141.5C474.093 141.95 473.018 142.175 471.752 142.175C470.502 142.175 469.385 141.967 468.402 141.55C467.418 141.117 466.627 140.5 466.027 139.7C465.443 138.9 465.11 137.967 465.027 136.9H468.777C468.86 137.617 469.143 138.217 469.627 138.7C470.127 139.167 470.785 139.4 471.602 139.4C472.335 139.4 472.893 139.208 473.277 138.825C473.677 138.425 473.877 137.917 473.877 137.3C473.877 136.75 473.718 136.3 473.402 135.95C473.085 135.583 472.685 135.292 472.202 135.075C471.718 134.858 471.052 134.608 470.202 134.325C469.102 133.958 468.202 133.6 467.502 133.25C466.802 132.883 466.202 132.358 465.702 131.675C465.218 130.992 464.977 130.1 464.977 129C464.977 127.483 465.518 126.292 466.602 125.425C467.702 124.542 469.152 124.1 470.952 124.1C472.818 124.1 474.302 124.55 475.402 125.45C476.518 126.35 477.152 127.55 477.302 129.05H473.502C473.402 128.417 473.135 127.9 472.702 127.5C472.268 127.083 471.677 126.875 470.927 126.875C470.277 126.875 469.752 127.05 469.352 127.4C468.952 127.733 468.752 128.225 468.752 128.875C468.752 129.392 468.902 129.825 469.202 130.175C469.518 130.508 469.91 130.783 470.377 131C470.86 131.217 471.51 131.458 472.327 131.725C473.46 132.125 474.377 132.5 475.077 132.85C475.793 133.2 476.402 133.725 476.902 134.425C477.402 135.125 477.652 136.042 477.652 137.175Z" fill="#032840"/>
<circle cx="337.5" cy="269.5" r="6.5" fill="white" stroke="black" stroke-width="2"/>
<circle cx="108.5" cy="431.5" r="11.5" fill="white" stroke="black" stroke-width="2"/>
<circle cx="108.5" cy="431.5" r="6.5" fill="#EC4699"/>
<circle cx="497.5" cy="132.5" r="6.5" fill="white" stroke="black" stroke-width="2"/>
<circle cx="674.5" cy="825.5" r="6.5" fill="white" stroke="black" stroke-width="2"/>
<circle cx="394.5" cy="758.5" r="6.5" fill="white" stroke="black" stroke-width="2"/>
<path d="M511.5 132.5H505" stroke="black" stroke-width="2"/>
<path d="M733.5 132.5H727" stroke="black" stroke-width="2"/>
<path d="M533.5 132.5H524" stroke="black" stroke-width="2"/>
<path d="M530.5 270H521" stroke="black" stroke-width="2"/>
<path d="M447.5 270H438" stroke="black" stroke-width="2"/>
<path d="M507.5 270H498" stroke="black" stroke-width="2"/>
<path d="M429.5 270H420" stroke="black" stroke-width="2"/>
<path d="M485.5 270H476" stroke="black" stroke-width="2"/>
<path d="M408.5 270H399" stroke="black" stroke-width="2"/>
<path d="M385.5 270H376" stroke="black" stroke-width="2"/>
<path d="M363.5 270H354" stroke="black" stroke-width="2"/>
<path d="M447 303.5L447 294" stroke="black" stroke-width="2"/>
<path d="M447 321.5L447 312" stroke="black" stroke-width="2"/>
<path d="M447 337L447 331" stroke="black" stroke-width="2"/>
<path d="M714.5 132.5H705" stroke="black" stroke-width="2"/>
<path d="M636 611L625 611" stroke="black" stroke-width="2"/>
<path d="M617 611L606 611" stroke="black" stroke-width="2"/>
<path d="M595 611L586 611" stroke="black" stroke-width="2"/>
<path d="M575 611L566 611" stroke="black" stroke-width="2"/>
<path d="M554 611L545 611" stroke="black" stroke-width="2"/>
<path d="M534 611L525 611" stroke="black" stroke-width="2"/>
<path d="M513 611L504 611" stroke="black" stroke-width="2"/>
<path d="M492 611L483 611" stroke="black" stroke-width="2"/>
<path d="M472 611L463 611" stroke="black" stroke-width="2"/>
<path d="M450 611L441 611" stroke="black" stroke-width="2"/>
<path d="M430 611L421 611" stroke="black" stroke-width="2"/>
<path d="M656 611H646" stroke="black" stroke-width="2"/>
<path d="M544 132.5H549.5C551 132.5 553 132.5 554 133.5" stroke="black" stroke-width="2"/>
<path d="M543 270H548.5C550 270 552 270 553 269" stroke="black" stroke-width="2"/>
<path d="M464 270L458.5 270C457 270 455 270 454 271" stroke="black" stroke-width="2"/>
<path d="M447 285.5L447 281.5C447 280 447 278 448 277" stroke="black" stroke-width="2"/>
<path d="M559 149L559 143.5C559 142 559 140 558 139" stroke="black" stroke-width="2"/>
<path d="M559 253L559 258.5C559 260 559 262 558 263" stroke="black" stroke-width="2"/>
<path d="M691 132.5H685.5C684 132.5 682 132.5 681 133.5" stroke="black" stroke-width="2"/>
<path d="M410 611H403.5C402 611 400.554 611.138 400 612.5" stroke="black" stroke-width="2"/>
<path d="M394 628L394 621.5C394 620 394.138 618.554 395.5 618" stroke="black" stroke-width="2"/>
<path opacity="0.4" d="M463.812 421.254C463.609 421.247 463.416 421.164 463.271 421.02C463.127 420.877 463.043 420.684 463.036 420.48V416.898C463.039 415.169 463.728 413.513 464.952 412.292C466.175 411.071 467.834 410.385 469.562 410.386H485.441C486.298 410.382 487.147 410.547 487.94 410.873C488.733 411.199 489.454 411.678 490.061 412.283C490.668 412.888 491.149 413.608 491.476 414.4C491.804 415.192 491.972 416.041 491.97 416.898V420.48C491.961 420.685 491.875 420.879 491.729 421.022C491.582 421.166 491.387 421.249 491.182 421.254H463.812ZM499.508 416.194V410.855C499.488 408.997 498.731 407.224 497.405 405.923C496.078 404.623 494.29 403.901 492.433 403.917H487.853C487.279 403.923 486.726 403.7 486.316 403.299C485.906 402.897 485.672 402.349 485.665 401.775C485.67 401.2 485.904 400.651 486.314 400.248C486.724 399.844 487.278 399.62 487.853 399.625H492.433C495.44 399.598 498.334 400.766 500.481 402.871C502.628 404.977 503.852 407.848 503.884 410.855V416.194C503.884 416.774 503.653 417.33 503.243 417.741C502.833 418.151 502.276 418.381 501.696 418.381C501.116 418.381 500.559 418.151 500.149 417.741C499.739 417.33 499.508 416.774 499.508 416.194ZM451.119 416.191V410.837C451.153 407.837 452.375 404.973 454.516 402.872C456.657 400.77 459.544 399.603 462.544 399.625H467.219C467.793 399.62 468.346 399.844 468.756 400.247C469.166 400.649 469.399 401.198 469.404 401.773C469.401 402.057 469.343 402.338 469.232 402.6C469.12 402.861 468.959 403.098 468.756 403.298C468.553 403.497 468.313 403.654 468.049 403.76C467.785 403.867 467.503 403.92 467.219 403.917H462.547C460.696 403.905 458.915 404.626 457.595 405.923C456.274 407.22 455.52 408.987 455.498 410.837V416.191C455.492 416.765 455.258 417.314 454.848 417.717C454.438 418.119 453.884 418.343 453.31 418.338C452.735 418.344 452.181 418.121 451.77 417.718C451.359 417.315 451.125 416.766 451.119 416.191V416.191Z" fill="#02273D"/>
<path d="M506.937 425.618H448.066C447.491 425.612 446.937 425.836 446.526 426.238C446.115 426.641 445.881 427.19 445.875 427.765C445.882 428.34 446.116 428.888 446.527 429.29C446.938 429.691 447.491 429.913 448.066 429.907H451.116V440.154C451.15 443.156 452.372 446.023 454.515 448.126C456.658 450.228 459.548 451.396 462.55 451.372H467.228C467.516 451.383 467.804 451.335 468.073 451.232C468.343 451.129 468.589 450.972 468.797 450.772C469.005 450.572 469.17 450.332 469.283 450.066C469.396 449.8 469.454 449.515 469.454 449.226C469.454 448.937 469.396 448.652 469.283 448.386C469.17 448.12 469.005 447.88 468.797 447.68C468.589 447.479 468.343 447.323 468.073 447.22C467.804 447.117 467.516 447.069 467.228 447.08H462.55C460.697 447.094 458.914 446.372 457.592 445.074C456.269 443.776 455.515 442.007 455.495 440.154V429.907H463.036V432.756C463.037 434.486 463.725 436.143 464.949 437.365C466.172 438.588 467.83 439.274 469.559 439.274H485.441C487.17 439.275 488.829 438.589 490.052 437.368C491.276 436.146 491.965 434.488 491.967 432.759V429.907H499.508V440.142C499.488 442 498.731 443.773 497.405 445.074C496.078 446.375 494.29 447.096 492.433 447.08H487.85C487.562 447.069 487.274 447.117 487.004 447.22C486.735 447.323 486.489 447.479 486.281 447.68C486.073 447.88 485.908 448.12 485.795 448.386C485.682 448.652 485.624 448.937 485.624 449.226C485.624 449.515 485.682 449.8 485.795 450.066C485.908 450.332 486.073 450.572 486.281 450.772C486.489 450.972 486.735 451.129 487.004 451.232C487.274 451.335 487.562 451.383 487.85 451.372H492.43C495.437 451.398 498.332 450.23 500.479 448.124C502.625 446.018 503.849 443.147 503.881 440.139V429.907H506.934C507.219 429.911 507.501 429.858 507.765 429.752C508.03 429.646 508.27 429.49 508.474 429.291C508.677 429.092 508.839 428.855 508.951 428.593C509.063 428.331 509.122 428.05 509.125 427.765C509.122 427.481 509.064 427.199 508.952 426.937C508.841 426.675 508.679 426.438 508.476 426.239C508.273 426.039 508.032 425.882 507.768 425.775C507.504 425.669 507.222 425.615 506.937 425.618" fill="#02273D"/>
<path opacity="0.4" d="M693.217 878.124C692.776 877.844 692.27 877.684 691.748 877.659C691.226 877.635 690.707 877.747 690.242 877.986L687.031 879.606C686.449 879.901 685.96 880.352 685.62 880.91C685.28 881.467 685.102 882.108 685.107 882.761V895.401C685.103 896.054 685.281 896.696 685.621 897.253C685.961 897.811 686.449 898.263 687.031 898.558L690.24 900.177C690.663 900.395 691.132 900.509 691.607 900.508C692.177 900.507 692.735 900.344 693.217 900.04C693.663 899.76 694.031 899.371 694.284 898.909C694.538 898.447 694.67 897.928 694.667 897.401V880.766C694.669 880.238 694.538 879.719 694.284 879.257C694.03 878.795 693.663 878.405 693.217 878.124" fill="#02273D"/>
<path d="M672.794 905.333H660.245C659.068 905.395 657.891 905.211 656.789 904.793C655.687 904.374 654.685 903.73 653.846 902.902C653.007 902.074 652.351 901.08 651.918 899.983C651.485 898.887 651.286 897.712 651.333 896.535V881.632C651.286 880.454 651.485 879.28 651.918 878.183C652.351 877.087 653.007 876.093 653.846 875.265C654.685 874.437 655.687 873.793 656.789 873.374C657.891 872.955 659.068 872.771 660.245 872.833H672.794C673.971 872.771 675.148 872.955 676.25 873.374C677.352 873.793 678.354 874.437 679.193 875.265C680.032 876.093 680.688 877.087 681.121 878.183C681.554 879.28 681.753 880.454 681.706 881.632V896.535C681.753 897.712 681.554 898.887 681.121 899.983C680.688 901.08 680.032 902.074 679.193 902.902C678.354 903.73 677.352 904.374 676.25 904.793C675.148 905.211 673.971 905.395 672.794 905.333" fill="white"/>
<defs>
<filter id="filter0_d_13_380" x="730" y="0" width="83" height="283" filterUnits="userSpaceOnUse" color-interpolation-filters="sRGB">
<feFlood flood-opacity="0" result="BackgroundImageFix"/>
<feColorMatrix in="SourceAlpha" type="matrix" values="0 0 0 0 0 0 0 0 0 0 0 0 0 0 0 0 0 0 127 0" result="hardAlpha"/>
<feOffset dy="4"/>
<feGaussianBlur stdDeviation="5"/>
<feComposite in2="hardAlpha" operator="out"/>
<feColorMatrix type="matrix" values="0 0 0 0 0 0 0 0 0 0 0 0 0 0 0 0 0 0 0.05 0"/>
<feBlend mode="normal" in2="BackgroundImageFix" result="effect1_dropShadow_13_380"/>
<feBlend mode="normal" in="SourceGraphic" in2="effect1_dropShadow_13_380" result="shape"/>
</filter>
<filter id="filter1_d_13_380" x="385" y="338" width="185" height="183" filterUnits="userSpaceOnUse" color-interpolation-filters="sRGB">
<feFlood flood-opacity="0" result="BackgroundImageFix"/>
<feColorMatrix in="SourceAlpha" type="matrix" values="0 0 0 0 0 0 0 0 0 0 0 0 0 0 0 0 0 0 127 0" result="hardAlpha"/>
<feOffset dy="4"/>
<feGaussianBlur stdDeviation="5"/>
<feComposite in2="hardAlpha" operator="out"/>
<feColorMatrix type="matrix" values="0 0 0 0 0 0 0 0 0 0 0 0 0 0 0 0 0 0 0.05 0"/>
<feBlend mode="normal" in2="BackgroundImageFix" result="effect1_dropShadow_13_380"/>
<feBlend mode="normal" in="SourceGraphic" in2="effect1_dropShadow_13_380" result="shape"/>
</filter>
<filter id="filter2_d_13_380" x="351" y="753" width="85" height="84" filterUnits="userSpaceOnUse" color-interpolation-filters="sRGB">
<feFlood flood-opacity="0" result="BackgroundImageFix"/>
<feColorMatrix in="SourceAlpha" type="matrix" values="0 0 0 0 0 0 0 0 0 0 0 0 0 0 0 0 0 0 127 0" result="hardAlpha"/>
<feOffset dy="4"/>
<feGaussianBlur stdDeviation="5"/>
<feComposite in2="hardAlpha" operator="out"/>
<feColorMatrix type="matrix" values="0 0 0 0 0 0 0 0 0 0 0 0 0 0 0 0 0 0 0.05 0"/>
<feBlend mode="normal" in2="BackgroundImageFix" result="effect1_dropShadow_13_380"/>
<feBlend mode="normal" in="SourceGraphic" in2="effect1_dropShadow_13_380" result="shape"/>
</filter>
<filter id="filter3_d_13_380" x="600" y="819" width="146" height="144" filterUnits="userSpaceOnUse" color-interpolation-filters="sRGB">
<feFlood flood-opacity="0" result="BackgroundImageFix"/>
<feColorMatrix in="SourceAlpha" type="matrix" values="0 0 0 0 0 0 0 0 0 0 0 0 0 0 0 0 0 0 127 0" result="hardAlpha"/>
<feOffset dy="4"/>
<feGaussianBlur stdDeviation="5"/>
<feComposite in2="hardAlpha" operator="out"/>
<feColorMatrix type="matrix" values="0 0 0 0 0 0 0 0 0 0 0 0 0 0 0 0 0 0 0.05 0"/>
<feBlend mode="normal" in2="BackgroundImageFix" result="effect1_dropShadow_13_380"/>
<feBlend mode="normal" in="SourceGraphic" in2="effect1_dropShadow_13_380" result="shape"/>
</filter>
<filter id="filter4_d_13_380" x="0" y="107" width="366" height="436" filterUnits="userSpaceOnUse" color-interpolation-filters="sRGB">
<feFlood flood-opacity="0" result="BackgroundImageFix"/>
<feColorMatrix in="SourceAlpha" type="matrix" values="0 0 0 0 0 0 0 0 0 0 0 0 0 0 0 0 0 0 127 0" result="hardAlpha"/>
<feOffset dy="4"/>
<feGaussianBlur stdDeviation="15"/>
<feComposite in2="hardAlpha" operator="out"/>
<feColorMatrix type="matrix" values="0 0 0 0 0 0 0 0 0 0 0 0 0 0 0 0 0 0 0.1 0"/>
<feBlend mode="normal" in2="BackgroundImageFix" result="effect1_dropShadow_13_380"/>
<feBlend mode="normal" in="SourceGraphic" in2="effect1_dropShadow_13_380" result="shape"/>
</filter>
<filter id="filter5_d_13_380" x="385" y="74" width="125" height="124" filterUnits="userSpaceOnUse" color-interpolation-filters="sRGB">
<feFlood flood-opacity="0" result="BackgroundImageFix"/>
<feColorMatrix in="SourceAlpha" type="matrix" values="0 0 0 0 0 0 0 0 0 0 0 0 0 0 0 0 0 0 127 0" result="hardAlpha"/>
<feOffset dy="4"/>
<feGaussianBlur stdDeviation="5"/>
<feComposite in2="hardAlpha" operator="out"/>
<feColorMatrix type="matrix" values="0 0 0 0 0 0 0 0 0 0 0 0 0 0 0 0 0 0 0.05 0"/>
<feBlend mode="normal" in2="BackgroundImageFix" result="effect1_dropShadow_13_380"/>
<feBlend mode="normal" in="SourceGraphic" in2="effect1_dropShadow_13_380" result="shape"/>
</filter>
</defs>
</svg>
