<svg width="212" height="53" viewBox="0 0 212 53" fill="none" xmlns="http://www.w3.org/2000/svg">
<g clip-path="url(#clip0_8_147)">
<path d="M31.0639 13.889V25.856C31.0639 26.8937 30.9725 27.9467 30.7846 29.0049C30.6019 30.0681 30.2364 31.2081 29.6932 32.4349C29.15 33.6618 28.4545 34.7404 27.6117 35.6657C26.769 36.596 25.6065 37.3679 24.1241 37.9865C22.6417 38.605 20.9411 38.9168 19.0272 38.9168H18.0778C16.6209 38.9168 15.2908 38.7584 14.0876 38.4363C12.8845 38.1143 11.8691 37.69 11.0467 37.1583C10.2192 36.6267 9.49326 35.9877 8.85869 35.2363C8.22411 34.4848 7.7266 33.7231 7.356 32.9461C6.98541 32.1742 6.68589 31.3461 6.44729 30.4618C6.20869 29.5774 6.05131 28.7697 5.97516 28.0387C5.89394 27.3077 5.8584 26.5818 5.8584 25.8508V13.889H12.0214V25.3959C12.0214 26.2802 12.1128 27.1033 12.3006 27.8649C12.4834 28.6266 12.7981 29.378 13.2347 30.1193C13.6713 30.8605 14.3465 31.4432 15.2502 31.8778C16.1538 32.3072 17.2402 32.5219 18.5043 32.5219C19.7531 32.5219 20.8192 32.3072 21.7026 31.8778C22.591 31.4484 23.256 30.8605 23.7027 30.1193C24.1495 29.378 24.4642 28.6266 24.6521 27.8649C24.8348 27.1033 24.9262 26.2802 24.9262 25.3959V13.889H31.0639Z" fill="#032840"/>
<path d="M68.9 38.9014H62.7522V14.0833H68.9V38.9014Z" fill="#032840"/>
<path d="M136.074 13.9708C137.912 13.9708 139.572 14.1293 141.059 14.4411C142.542 14.7529 143.78 15.2079 144.77 15.8009C145.76 16.3939 146.608 17.0533 147.314 17.7792C148.019 18.5051 148.557 19.3281 148.933 20.2431C149.304 21.1581 149.573 22.0578 149.74 22.9422C149.908 23.8265 149.994 24.7671 149.994 25.7742V26.7812C149.994 27.9672 149.887 29.0764 149.674 30.1142C149.461 31.1519 149.045 32.2305 148.415 33.35C147.786 34.4695 146.979 35.4152 145.989 36.1973C144.999 36.9794 143.653 37.6286 141.958 38.1398C140.262 38.651 138.308 38.9117 136.099 38.9117H123.002V13.9708H136.074ZM129.18 32.9001H135.597C140.881 32.9001 143.521 30.7531 143.521 26.4643V26.2649C143.521 21.9965 140.876 19.8648 135.597 19.8648H129.18V32.9001Z" fill="#032840"/>
<path d="M173.088 13.9708V19.6297H158.401V23.3153H172.742V29.01H158.401V33.0995H173.352V38.9015H152.304V13.9708H173.088Z" fill="#032840"/>
<path d="M197.161 14.0577V18.546L183.845 32.803H197.344V38.6101H175.281V34.0861L188.257 19.7319H175.489V14.0577H197.161Z" fill="#032840"/>
<path d="M94.8466 32.9768H83.7897C82.9673 32.9768 82.2007 32.8848 81.4951 32.6957C80.7843 32.5065 80.0888 32.1896 79.3984 31.7346C78.708 31.2797 78.1648 30.6049 77.7638 29.7052C77.3627 28.8055 77.1647 27.7269 77.1647 26.4592C77.1647 25.1761 77.3627 24.077 77.7638 23.162C78.1648 22.247 78.708 21.562 79.3984 21.1172C80.0838 20.6725 80.7843 20.3556 81.4951 20.1716C82.2058 19.9824 82.9724 19.8904 83.7897 19.8904H94.7857C96.3188 17.0482 98.8318 14.8092 101.863 13.6437H83.3582C82.683 13.6437 82.0027 13.6846 81.3225 13.7664C80.6422 13.8482 79.8959 14.0066 79.0735 14.2469C78.2511 14.4871 77.4795 14.7939 76.7637 15.167C76.0428 15.5402 75.3371 16.0463 74.6366 16.6852C73.936 17.3293 73.342 18.0655 72.8496 18.9038C72.3571 19.7422 71.9612 20.7696 71.6617 21.9863C71.3621 23.2029 71.2149 24.5524 71.2149 26.0298V26.9908C71.2149 28.9333 71.5043 30.656 72.0779 32.1589C72.6516 33.6618 73.3725 34.8427 74.2355 35.6963C75.0985 36.55 76.0986 37.2555 77.2409 37.8024C78.378 38.3545 79.4441 38.7226 80.429 38.9117C81.4138 39.1009 82.3936 39.1929 83.3582 39.1929H102.071C98.979 38.0683 96.4153 35.8395 94.8466 32.9768Z" fill="#032840"/>
<path d="M121 26.0001C121 23.7092 120.395 21.4591 119.245 19.4775C118.096 17.4958 116.443 15.8531 114.455 14.7157C112.466 13.5783 110.212 12.9865 107.922 13.0003C105.631 13.0141 103.384 13.633 101.41 14.7943L104.498 20.0455C105.547 19.4284 106.741 19.0995 107.958 19.0922C109.176 19.0848 110.373 19.3993 111.43 20.0037C112.487 20.6081 113.365 21.481 113.976 22.534C114.586 23.587 114.908 24.7827 114.908 26.0001H121Z" fill="#EC4699"/>
<path d="M101.5 14.7417C99.5161 15.8871 97.8701 17.5364 96.7287 19.5227C95.5872 21.5089 94.9909 23.7614 95.0001 26.0523C95.0093 28.3431 95.6237 30.5908 96.7811 32.5678C97.9384 34.5447 99.5977 36.1808 101.591 37.3102L104.594 32.0101C103.535 31.41 102.653 30.5406 102.038 29.49C101.423 28.4395 101.097 27.2451 101.092 26.0278C101.087 24.8105 101.404 23.6135 102.011 22.558C102.617 21.5026 103.492 20.6262 104.546 20.0175L101.5 14.7417Z" fill="#FCE441"/>
<path d="M101.5 37.2584C103.484- 38.4038 105.735 39.0046 108.026 39C110.317 38.9954 112.566 38.3855 114.545 37.2322C116.525 36.0788 118.164 34.4228 119.297 32.4321C120.431 30.4413 121.018 28.1863 121 25.8956L114.908 25.9445C114.918 27.1618 114.606 28.36 114.003 29.4179C113.401 30.4758 112.53 31.3557 111.478 31.9686C110.426 32.5815 109.231 32.9056 108.014 32.908C106.797 32.9105 105.6 32.5912 104.546 31.9826L101.5 37.2584Z" fill="#37B8EA"/>
<path d="M40.7247 14.1548L53.2893 29.6898V14.1548H59.3711V38.8503H53.2893L39.9276 22.4821V38.8452H33.8458V14.1497L40.7247 14.1548Z" fill="#032840"/>
<path d="M197.161 14.0577V18.546L183.845 32.803H197.344V38.6101H175.281V34.0861L188.257 19.7319H175.489V14.0577H197.161Z" fill="#032840"/>
</g>
<defs>
<clipPath id="clip0_8_147">
<rect width="212" height="53" fill="white"/>
</clipPath>
</defs>
</svg>
