<svg width="108" height="108" viewBox="0 0 108 108" fill="none" xmlns="http://www.w3.org/2000/svg">
<circle cx="54" cy="54" r="54" fill="#B4E0C5"/>
<path d="M70.4973 37.5116C70.0664 37.0734 69.5246 36.7605 68.9297 36.6064C68.3348 36.4523 67.7092 36.4627 67.1198 36.6366L38.9623 44.7723C38.3498 44.9385 37.7971 45.2753 37.3686 45.7434C36.9402 46.2116 36.6535 46.7918 36.542 47.4166C36.4716 48.1279 36.5975 48.845 36.9061 49.4898C37.2146 50.1346 37.6939 50.6825 38.292 51.0741L47.0998 56.4501C47.5384 56.7189 48.0548 56.8321 48.5656 56.7714C49.0765 56.7108 49.552 56.4798 49.9155 56.1158L59.9973 46.0341C60.1173 45.9091 60.2613 45.8098 60.4207 45.7419C60.5801 45.674 60.7515 45.639 60.9248 45.639C61.098 45.639 61.2695 45.674 61.4288 45.7419C61.5882 45.8098 61.7322 45.9091 61.8523 46.0341C62.0964 46.2811 62.2332 46.6143 62.2332 46.9616C62.2332 47.3088 62.0964 47.6421 61.8523 47.8891L51.753 57.9708C51.389 58.3342 51.1578 58.8095 51.0965 59.3202C51.0352 59.8309 51.1475 60.3474 51.4153 60.7866L56.7948 69.6241C57.143 70.1816 57.6412 70.6298 58.2324 70.9173C58.8235 71.2048 59.4837 71.3201 60.1373 71.2498C60.7966 71.1696 61.418 70.8983 61.9249 70.4691C62.4317 70.04 62.8019 69.4718 62.9898 68.8348L71.3373 40.8891C71.5145 40.3026 71.53 39.6792 71.3822 39.0847C71.2343 38.4902 70.9286 37.9466 70.4973 37.5116Z" fill="#02273D"/>
<path opacity="0.4" d="M45.2955 70.7457C45.0498 70.4996 44.9117 70.166 44.9117 69.8182C44.9117 69.4704 45.0498 69.1368 45.2955 68.8907L47.6843 66.5002C47.9317 66.261 48.2632 66.1286 48.6073 66.1314C48.9515 66.1342 49.2807 66.2721 49.5242 66.5153C49.7677 66.7586 49.9058 67.0877 49.909 67.4318C49.9121 67.776 49.78 68.1076 49.541 68.3552L47.1505 70.7457C46.9044 70.9915 46.5709 71.1296 46.223 71.1296C45.8752 71.1296 45.5416 70.9915 45.2955 70.7457ZM43.9235 64.1167C43.6778 63.8706 43.5397 63.537 43.5397 63.1892C43.5397 62.8414 43.6778 62.5078 43.9235 62.2617L46.3123 59.8695C46.5585 59.6233 46.8925 59.4849 47.2407 59.4849C47.5889 59.4849 47.9228 59.6233 48.169 59.8695C48.4153 60.1157 48.5536 60.4496 48.5536 60.7978C48.5536 61.1461 48.4153 61.48 48.169 61.7262L45.7785 64.1167C45.5324 64.3625 45.1989 64.5006 44.851 64.5006C44.5032 64.5006 44.1696 64.3625 43.9235 64.1167ZM37.3418 62.029C37.096 61.7829 36.9579 61.4493 36.9579 61.1015C36.9579 60.7537 37.096 60.4201 37.3418 60.174L39.7305 57.7835C39.9768 57.5373 40.3107 57.3989 40.6589 57.3989C41.0071 57.3989 41.3411 57.5373 41.5873 57.7835C41.8335 58.0297 41.9718 58.3636 41.9718 58.7118C41.9718 59.0601 41.8335 59.394 41.5873 59.6402L39.1968 62.029C38.9507 62.2748 38.6171 62.4128 38.2693 62.4128C37.9215 62.4128 37.5879 62.2748 37.3418 62.029Z" fill="#02273D"/>
</svg>
