<svg width="108" height="108" viewBox="0 0 108 108" fill="none" xmlns="http://www.w3.org/2000/svg">
<circle cx="54" cy="54" r="54" fill="#E7E7E7"/>
<path d="M47.3045 71.5C45.1279 71.488 43.0449 70.6137 41.5118 69.0687C39.9786 67.5238 39.1203 65.4341 39.125 63.2575V44.3925C39.1171 42.3105 39.9353 40.3103 41.4001 38.8307C42.8649 37.3512 44.8568 36.513 46.9387 36.5H56.191C56.4033 36.5014 56.6063 36.5869 56.7556 36.7378C56.9049 36.8888 56.9882 37.0927 56.9872 37.305V42.94C56.9876 44.4804 57.5959 45.9584 58.6799 47.0529C59.7638 48.1473 61.2359 48.7698 62.7762 48.785C63.5165 48.785 64.1657 48.785 64.7397 48.7955C65.1895 48.7955 65.5815 48.7955 65.9297 48.7955C66.1765 48.7955 66.495 48.7955 66.8415 48.7955C67.2422 48.7955 67.692 48.7867 68.0945 48.7867C68.3021 48.7877 68.5009 48.8709 68.6472 49.0182C68.7935 49.1655 68.8755 49.3649 68.875 49.5725V63.6425C68.8829 65.7155 68.0682 67.7071 66.6095 69.1801C65.1509 70.6532 63.1675 71.4875 61.0945 71.5H47.3045ZM47.322 60.3717C47.3247 60.7169 47.4622 61.0473 47.7051 61.2925C47.948 61.5378 48.2771 61.6783 48.6222 61.6842H58.0477C58.3929 61.6783 58.722 61.5378 58.9649 61.2925C59.2078 61.0473 59.3453 60.7169 59.348 60.3717C59.3478 60.2012 59.314 60.0324 59.2485 59.875C59.183 59.7175 59.0872 59.5745 58.9664 59.4541C58.8457 59.3337 58.7024 59.2382 58.5448 59.1732C58.3872 59.1081 58.2183 59.0748 58.0477 59.075H48.6205C48.2767 59.075 47.947 59.2113 47.7036 59.4541C47.4601 59.6968 47.3229 60.0262 47.322 60.37V60.3717ZM47.322 51.6392C47.3229 51.9833 47.4604 52.313 47.7042 52.5558C47.948 52.7986 48.2782 52.9347 48.6222 52.9342H54.476C54.8201 52.9347 55.1503 52.7986 55.3941 52.5558C55.6379 52.313 55.7753 51.9833 55.7762 51.6392C55.7736 51.2941 55.6361 50.9637 55.3932 50.7184C55.1502 50.4732 54.8211 50.3327 54.476 50.3267H48.6205C48.276 50.3331 47.9476 50.4736 47.7051 50.7184C47.4626 50.9632 47.3251 51.2929 47.322 51.6375V51.6392ZM63.009 46.23C62.0782 46.2217 61.1882 45.8462 60.5328 45.1852C59.8774 44.5242 59.5094 43.6311 59.509 42.7003V38.0855C59.5068 37.9195 59.5546 37.7566 59.6462 37.6181C59.7377 37.4796 59.8688 37.3718 60.0225 37.3088C60.1761 37.2457 60.3451 37.2304 60.5076 37.2646C60.67 37.2989 60.8184 37.3813 60.9335 37.501L67.909 44.8282C68.0211 44.946 68.0965 45.0939 68.1257 45.2538C68.155 45.4137 68.1369 45.5787 68.0737 45.7285C68.0106 45.8783 67.905 46.0064 67.77 46.097C67.6351 46.1877 67.4766 46.2369 67.314 46.2388H66.1047C65.0127 46.2423 63.8857 46.237 63.009 46.2283V46.23Z" fill="#02273D"/>
</svg>
