<svg width="108" height="108" viewBox="0 0 108 108" fill="none" xmlns="http://www.w3.org/2000/svg">
<circle cx="54" cy="54" r="54" fill="#FFEEB6"/>
<path d="M59.4634 63.45C59.4425 62.2554 59.7777 61.0817 60.4262 60.0783C61.0747 59.0749 62.0072 58.2872 63.1049 57.8156C64.2026 57.3439 65.4158 57.2096 66.59 57.4299C67.7643 57.6501 68.8465 58.2148 69.6987 59.0522C70.5509 59.8895 71.1346 60.9615 71.3754 62.1317C71.6163 63.3019 71.5034 64.5173 71.0511 65.6232C70.5989 66.729 69.8277 67.6752 68.8359 68.3412C67.844 69.0073 66.6764 69.3631 65.4816 69.3632C63.8995 69.3768 62.3768 68.7614 61.2483 67.6526C60.1197 66.5437 59.4777 65.0321 59.4634 63.45V63.45ZM39.1389 66.1117C38.7928 66.1207 38.4483 66.0603 38.1259 65.9341C37.8035 65.8078 37.5096 65.6183 37.2616 65.3767C37.0136 65.135 36.8165 64.8462 36.6819 64.5271C36.5474 64.2081 36.478 63.8654 36.478 63.5191C36.478 63.1729 36.5474 62.8301 36.6819 62.5111C36.8165 62.1921 37.0136 61.9032 37.2616 61.6616C37.5096 61.4199 37.8035 61.2304 38.1259 61.1042C38.4483 60.9779 38.7928 60.9175 39.1389 60.9265H50.6451C50.9913 60.9175 51.3357 60.9779 51.6581 61.1042C51.9805 61.2304 52.2744 61.4199 52.5224 61.6616C52.7704 61.9032 52.9675 62.1921 53.1021 62.5111C53.2367 62.8301 53.306 63.1729 53.306 63.5191C53.306 63.8654 53.2367 64.2081 53.1021 64.5271C52.9675 64.8462 52.7704 65.135 52.5224 65.3767C52.2744 65.6183 51.9805 65.8078 51.6581 65.9341C51.3357 66.0603 50.9913 66.1207 50.6451 66.1117H39.1389ZM36.4999 44.1632C36.5068 43.3798 36.6679 42.6054 36.974 41.8842C37.2802 41.163 37.7254 40.5092 38.2843 39.9601C38.8431 39.411 39.5047 38.9774 40.2311 38.684C40.9576 38.3905 41.7347 38.2431 42.5181 38.25C43.3016 38.2431 44.0787 38.3905 44.8052 38.684C45.5316 38.9774 46.1932 39.411 46.752 39.9601C47.3109 40.5092 47.7561 41.163 48.0622 41.8842C48.3684 42.6054 48.5295 43.3798 48.5364 44.1632C48.5295 44.9467 48.3684 45.7211 48.0622 46.4423C47.7561 47.1634 47.3109 47.8173 46.752 48.3664C46.1932 48.9155 45.5316 49.3491 44.8052 49.6425C44.0787 49.936 43.3016 50.0834 42.5181 50.0765C40.936 50.09 39.4133 49.4747 38.2848 48.3658C37.1562 47.257 36.5142 45.7453 36.4999 44.1632V44.1632ZM57.3564 46.755C56.669 46.755 56.0098 46.4819 55.5237 45.9959C55.0377 45.5098 54.7646 44.8506 54.7646 44.1632C54.7646 43.4759 55.0377 42.8166 55.5237 42.3306C56.0098 41.8445 56.669 41.5715 57.3564 41.5715H68.8626C69.55 41.5715 70.2092 41.8445 70.6953 42.3306C71.1813 42.8166 71.4544 43.4759 71.4544 44.1632C71.4544 44.8506 71.1813 45.5098 70.6953 45.9959C70.2092 46.4819 69.55 46.755 68.8626 46.755H57.3564Z" fill="#02273D"/>
</svg>
