<svg width="108" height="108" viewBox="0 0 108 108" fill="none" xmlns="http://www.w3.org/2000/svg">
<circle cx="54" cy="54" r="54" fill="#D1F2FF"/>
<path d="M62.1706 71.5001H45.8274C44.5737 71.5777 43.3172 71.4023 42.1327 70.9844C40.9482 70.5665 39.8598 69.9146 38.9324 69.0676C38.0854 68.14 37.4336 67.0517 37.0157 65.8672C36.5978 64.6827 36.4224 63.4262 36.4999 62.1726V45.8276C36.4222 44.574 36.5973 43.3176 37.0149 42.1331C37.4325 40.9486 38.084 39.8602 38.9306 38.9326C39.8584 38.0853 40.947 37.4334 42.1318 37.0155C43.3167 36.5976 44.5734 36.4223 45.8274 36.5001H62.1706C63.4234 36.4222 64.679 36.5973 65.8627 37.0149C67.0463 37.4325 68.1338 38.0841 69.0604 38.9308C69.9066 39.8595 70.5584 40.9481 70.9774 42.1326C71.3963 43.317 71.574 44.5734 71.4999 45.8276V62.1726C71.5775 63.4262 71.4021 64.6827 70.9842 65.8672C70.5664 67.0517 69.9145 68.1401 69.0674 69.0676C68.1396 69.9147 67.051 70.5666 65.8661 70.9845C64.6813 71.4024 63.4246 71.5777 62.1706 71.5001ZM62.1356 55.5978C61.8581 55.599 61.5863 55.6765 61.3499 55.8218C61.1179 55.9635 60.9318 56.1692 60.8138 56.4141C60.6959 56.6591 60.6511 56.9328 60.6849 57.2026V62.9426C60.7182 63.3036 60.8861 63.639 61.1551 63.8821C61.4242 64.1252 61.7748 64.2583 62.1374 64.2551C62.4981 64.2517 62.8451 64.1163 63.1127 63.8744C63.3804 63.6326 63.5501 63.3011 63.5899 62.9426V57.2026C63.615 56.9316 63.5643 56.659 63.4435 56.4152C63.3226 56.1714 63.1364 55.9659 62.9056 55.8218C62.6754 55.6757 62.4083 55.5981 62.1356 55.5978V55.5978ZM54.0891 43.5001C53.8164 43.5003 53.5494 43.578 53.3191 43.7241C53.0889 43.8693 52.903 44.0751 52.782 44.319C52.661 44.5628 52.6095 44.8353 52.6331 45.1066V62.9426C52.673 63.3014 52.843 63.6331 53.111 63.875C53.379 64.1169 53.7264 64.2521 54.0874 64.2551C54.4499 64.2579 54.8003 64.1247 55.0692 63.8817C55.3382 63.6386 55.5062 63.3035 55.5399 62.9426V45.1101C55.5723 44.8404 55.527 44.5671 55.4096 44.3222C55.2921 44.0774 55.1072 43.8711 54.8766 43.7276C54.6398 43.5813 54.3675 43.5026 54.0891 43.5001V43.5001ZM45.9324 49.2436C45.6597 49.2437 45.3926 49.3214 45.1624 49.4676C44.9322 49.6126 44.7466 49.8186 44.6262 50.0625C44.5057 50.3065 44.4551 50.5791 44.4799 50.8501V62.9426C44.5173 63.3015 44.6864 63.6338 44.9545 63.8754C45.2226 64.117 45.5707 64.2506 45.9315 64.2506C46.2924 64.2506 46.6405 64.117 46.9085 63.8754C47.1766 63.6338 47.3457 63.3015 47.3831 62.9426V50.8501C47.4077 50.5793 47.3572 50.307 47.2371 50.0631C47.117 49.8192 46.932 49.6131 46.7024 49.4676C46.472 49.3217 46.2051 49.244 45.9324 49.2436V49.2436Z" fill="#02273D"/>
</svg>
