<svg width="108" height="108" viewBox="0 0 108 108" fill="none" xmlns="http://www.w3.org/2000/svg">
<circle cx="54" cy="54" r="54" fill="#B4E0C5"/>
<path d="M54.1418 71.5C53.9267 71.5005 53.7147 71.4489 53.524 71.3495L47.224 68.0892C45.6164 67.2972 44.1661 66.2198 42.9435 64.9095C40.5611 62.2839 39.2281 58.8734 39.1985 55.3282L39.125 43.717C39.127 43.056 39.3353 42.4122 39.7209 41.8754C40.1064 41.3386 40.65 40.9356 41.2757 40.7227L52.8468 36.6855C53.543 36.4419 54.3007 36.4382 54.9993 36.675L66.614 40.5722C67.2436 40.7774 67.793 41.1747 68.1851 41.7084C68.5771 42.242 68.7921 42.8851 68.7998 43.5472L68.875 55.1585C68.8937 58.7018 67.6073 62.128 65.2613 64.7835C64.0546 66.1031 62.6185 67.1929 61.0227 68L54.7787 71.3425C54.5854 71.4439 54.3706 71.4979 54.1522 71.5H54.1418ZM49.45 52.2622C49.0973 52.2606 48.7583 52.3983 48.5068 52.6455C48.3854 52.7641 48.2893 52.906 48.224 53.0627C48.1587 53.2193 48.1257 53.3875 48.1268 53.5572C48.128 53.7269 48.1633 53.8946 48.2307 54.0504C48.298 54.2061 48.3961 54.3467 48.519 54.4637L51.872 57.689C52.1201 57.9279 52.4515 58.061 52.796 58.06H52.8082C53.1574 58.0594 53.4923 57.9218 53.741 57.6767L60.566 50.9497C60.6874 50.8312 60.7837 50.6894 60.8491 50.5328C60.9146 50.3762 60.9478 50.208 60.9468 50.0384C60.9458 49.8687 60.9107 49.7009 60.8434 49.5451C60.7762 49.3893 60.6783 49.2486 60.5555 49.1315C60.3036 48.8911 59.9683 48.7577 59.6201 48.7593C59.2719 48.7609 58.9379 48.8975 58.6882 49.1402L52.789 54.9537L50.3757 52.6332C50.127 52.3941 49.795 52.2611 49.45 52.2622V52.2622Z" fill="#02273D"/>
</svg>
