<svg width="108" height="108" viewBox="0 0 108 108" fill="none" xmlns="http://www.w3.org/2000/svg">
<circle cx="54" cy="54" r="54" fill="#FFCBC3"/>
<path d="M51.6848 69.75C50.6538 69.6712 49.6773 69.2555 48.9058 68.567L42.7353 63.422H39.5661C38.3683 63.4051 37.2237 62.9245 36.3729 62.0812C35.5221 61.2379 35.0313 60.0976 35.0038 58.9C34.6667 55.597 34.6667 52.2683 35.0038 48.9653C35.0856 47.7982 35.5974 46.703 36.4401 45.8915C37.2829 45.0801 38.3968 44.6102 39.5661 44.5727H42.7353L48.7903 39.4977C49.6439 38.7695 50.7075 38.3324 51.8266 38.25C52.7956 38.2922 53.7245 38.6492 54.4723 39.2669C55.2201 39.8847 55.7461 40.7294 55.9706 41.673C56.1697 42.5339 56.3048 43.4084 56.3748 44.2892L56.4588 45.0627C56.7738 51.0179 56.7738 56.9856 56.4588 62.9408L56.3748 63.7423C56.3135 64.5991 56.1824 65.4495 55.9828 66.285C55.7699 67.2328 55.2523 68.0847 54.5093 68.7105C53.7663 69.3362 52.8388 69.7013 51.8686 69.75H51.6848ZM66.7593 69.365C66.4091 69.1097 66.1715 68.7286 66.0964 68.3017C66.0213 67.8748 66.1147 67.4355 66.3568 67.076C68.8469 63.1759 70.128 58.6264 70.0388 54C70.1277 49.3739 68.846 44.825 66.3551 40.9258C66.1134 40.5661 66.0203 40.1269 66.0953 39.7002C66.1704 39.2734 66.4077 38.8923 66.7576 38.6368C66.93 38.5129 67.1256 38.4251 67.3327 38.3787C67.5399 38.3324 67.7543 38.3284 67.963 38.3669C68.1717 38.4055 68.3705 38.4859 68.5474 38.6032C68.7243 38.7206 68.8756 38.8724 68.9923 39.0497C71.857 43.5033 73.3385 48.7054 73.2501 54C73.339 59.2952 71.8574 64.498 68.9923 68.952C68.8463 69.1672 68.65 69.3435 68.4203 69.4655C68.1906 69.5875 67.9346 69.6515 67.6746 69.652C67.3471 69.6538 67.0272 69.5535 66.7593 69.365V69.365ZM61.2258 64.0485C60.8756 63.7932 60.638 63.4121 60.5629 62.9852C60.4878 62.5583 60.5812 62.119 60.8233 61.7595C62.298 59.4441 63.0554 56.7445 63.0003 54C63.0561 51.2556 62.2993 48.556 60.8251 46.2405C60.5828 45.8812 60.4891 45.442 60.5639 45.0152C60.6386 44.5883 60.8759 44.2071 61.2258 43.9515C61.399 43.8288 61.595 43.7421 61.8023 43.6965C62.0096 43.6509 62.2239 43.6473 62.4326 43.686C62.6413 43.7247 62.8401 43.8048 63.0173 43.9216C63.1944 44.0385 63.3464 44.1897 63.4641 44.3662C65.3107 47.2359 66.2667 50.588 66.2116 54C66.2662 57.4122 65.3096 60.7643 63.4623 63.6338C63.3458 63.8114 63.1944 63.9637 63.0175 64.0814C62.8405 64.199 62.6416 64.2797 62.4326 64.3184C62.2236 64.3572 62.009 64.3532 61.8016 64.3069C61.5942 64.2605 61.3984 64.1726 61.2258 64.0485V64.0485Z" fill="#02273D"/>
</svg>
