<svg width="108" height="108" viewBox="0 0 108 108" fill="none" xmlns="http://www.w3.org/2000/svg">
<circle cx="54" cy="54" r="54" fill="#D3D4FF"/>
<path d="M37.5 64.9306C37.5 60.4068 43.5445 59.2763 50.625 59.2763C57.7422 59.2763 63.75 60.4471 63.75 64.9691C63.75 69.4911 57.7037 70.6251 50.625 70.6251C43.5095 70.6251 37.5 69.4508 37.5 64.9306ZM65.675 55.0291V52.9693H63.575C63.1611 52.9556 62.7687 52.7815 62.4808 52.4839C62.1928 52.1862 62.0318 51.7883 62.0318 51.3742C62.0318 50.96 62.1928 50.5621 62.4808 50.2645C62.7687 49.9668 63.1611 49.7928 63.575 49.7791H65.675V47.7193C65.675 47.5125 65.7157 47.3077 65.7949 47.1166C65.874 46.9255 65.9901 46.7519 66.1363 46.6056C66.2826 46.4594 66.4562 46.3433 66.6473 46.2642C66.8384 46.185 67.0432 46.1443 67.25 46.1443C67.4568 46.1443 67.6616 46.185 67.8527 46.2642C68.0438 46.3433 68.2174 46.4594 68.3637 46.6056C68.5099 46.7519 68.626 46.9255 68.7051 47.1166C68.7843 47.3077 68.825 47.5125 68.825 47.7193V49.7791H70.925C71.3389 49.7928 71.7313 49.9668 72.0192 50.2645C72.3072 50.5621 72.4682 50.96 72.4682 51.3742C72.4682 51.7883 72.3072 52.1862 72.0192 52.4839C71.7313 52.7815 71.3389 52.9556 70.925 52.9693H68.825V55.0291C68.825 55.4468 68.6591 55.8474 68.3637 56.1427C68.0683 56.4381 67.6677 56.6041 67.25 56.6041C66.8323 56.6041 66.4317 56.4381 66.1363 56.1427C65.8409 55.8474 65.675 55.4468 65.675 55.0291V55.0291ZM41.9397 46.1723C41.9234 45.0215 42.136 43.8789 42.5651 42.8109C42.9942 41.743 43.6313 40.771 44.4393 39.9514C45.2473 39.1318 46.2102 38.481 47.272 38.0367C48.3337 37.5925 49.4732 37.3638 50.6241 37.3638C51.7751 37.3638 52.9145 37.5925 53.9763 38.0367C55.038 38.481 56.0009 39.1318 56.809 39.9514C57.617 40.771 58.2541 41.743 58.6832 42.8109C59.1123 43.8789 59.3248 45.0215 59.3085 46.1723C59.3248 47.3231 59.1123 48.4657 58.6832 49.5337C58.2541 50.6016 57.617 51.5737 56.809 52.3932C56.0009 53.2128 55.038 53.8636 53.9763 54.3079C52.9145 54.7521 51.7751 54.9808 50.6241 54.9808C49.4732 54.9808 48.3337 54.7521 47.272 54.3079C46.2102 53.8636 45.2473 53.2128 44.4393 52.3932C43.6313 51.5737 42.9942 50.6016 42.5651 49.5337C42.136 48.4657 41.9234 47.3231 41.9397 46.1723V46.1723Z" fill="#02273D"/>
</svg>
