<svg width="108" height="108" viewBox="0 0 108 108" fill="none" xmlns="http://www.w3.org/2000/svg">
<circle cx="54" cy="54" r="54" fill="#E7E7E7"/>
<path d="M42.779 63.24C42.779 59.4303 47.8733 58.4433 53.9108 58.4433C59.915 58.4433 65.0408 59.3953 65.0408 63.205C65.0408 67.0148 59.95 68 53.9108 68C47.9065 68 42.779 67.048 42.779 63.24ZM68.154 63.94C68.2624 62.3391 67.874 60.7438 67.0417 59.3719C66.2095 58 64.9741 56.9185 63.5043 56.275C63.4879 56.2689 63.474 56.2575 63.4648 56.2426C63.4556 56.2277 63.4516 56.2102 63.4535 56.1928C63.4575 56.1806 63.4649 56.1698 63.4748 56.1618C63.4847 56.1537 63.4968 56.1487 63.5095 56.1473C65.4141 56.113 67.3169 56.2796 69.1865 56.6443C69.9431 56.7038 70.6751 56.9408 71.323 57.3361C71.971 57.7313 72.5166 58.2737 72.9158 58.9193C73.135 59.3752 73.2488 59.8746 73.2488 60.3805C73.2488 60.8864 73.135 61.3858 72.9158 61.8418C72.109 63.5918 69.5138 64.15 68.504 64.2918H68.4568C68.4138 64.29 68.3715 64.2796 68.3326 64.2612C68.2937 64.2427 68.259 64.2166 68.2304 64.1845C68.2018 64.1523 68.18 64.1147 68.1663 64.0739C68.1525 64.0331 68.1472 63.9899 68.1505 63.947L68.154 63.94ZM39.4978 64.2988C38.4898 64.1535 35.8928 63.5988 35.0878 61.8488C34.8671 61.3936 34.7524 60.8943 34.7524 60.3884C34.7524 59.8825 34.8671 59.3832 35.0878 58.928C35.4853 58.2807 36.0302 57.7364 36.6779 57.3396C37.3257 56.9427 38.058 56.7045 38.8153 56.6443C40.6852 56.2821 42.5879 56.1162 44.4923 56.149C44.5048 56.15 44.5169 56.1547 44.5268 56.1625C44.5368 56.1703 44.5442 56.1808 44.5483 56.1928C44.5504 56.2102 44.5467 56.2278 44.5379 56.243C44.529 56.2582 44.5155 56.27 44.4993 56.2768C43.0291 56.9197 41.7935 58.0012 40.9615 59.3732C40.1295 60.7453 39.7417 62.3409 39.8513 63.9418C39.8577 63.9864 39.8546 64.0318 39.8422 64.0752C39.8298 64.1185 39.8083 64.1587 39.7792 64.1931C39.7501 64.2275 39.714 64.2553 39.6733 64.2747C39.6326 64.2942 39.5883 64.3047 39.5433 64.3058L39.4978 64.2988ZM46.545 47.4078C46.545 45.454 47.3211 43.5803 48.7026 42.1988C50.0842 40.8173 51.9579 40.0411 53.9116 40.0411C55.8654 40.0411 57.7391 40.8173 59.1206 42.1988C60.5021 43.5803 61.2783 45.454 61.2783 47.4078C61.2783 49.3615 60.5021 51.2352 59.1206 52.6168C57.7391 53.9983 55.8654 54.7744 53.9116 54.7744C51.9579 54.7744 50.0842 53.9983 48.7026 52.6168C47.3211 51.2352 46.545 49.3615 46.545 47.4078V47.4078ZM63.7353 53.7235C63.4519 53.7163 63.1694 53.6888 62.89 53.6413C62.8442 53.6336 62.8011 53.6146 62.7645 53.5859C62.7279 53.5573 62.6991 53.52 62.6807 53.4773C62.6622 53.4347 62.6547 53.3881 62.6589 53.3419C62.6631 53.2956 62.6788 53.2512 62.7045 53.2125C63.8515 51.4949 64.4512 49.47 64.4246 47.4048C64.398 45.3396 63.7465 43.3309 62.5558 41.6433C62.5334 41.6167 62.5189 41.5845 62.514 41.5501C62.509 41.5158 62.5138 41.4808 62.5278 41.449C62.5634 41.4029 62.6154 41.3722 62.673 41.3633C63.0806 41.2788 63.4957 41.236 63.912 41.2355C64.8699 41.2427 65.8133 41.4696 66.6696 41.8989C67.5259 42.3281 68.2722 42.9482 68.8511 43.7114C69.43 44.4745 69.8259 45.3604 70.0085 46.3007C70.191 47.241 70.1553 48.2107 69.904 49.135C69.5582 50.4593 68.7799 51.6302 67.6928 52.4618C66.6057 53.2934 65.2719 53.7381 63.9033 53.7253L63.7353 53.7235ZM38.096 49.135C37.8447 48.2107 37.809 47.241 37.9915 46.3007C38.1741 45.3604 38.57 44.4745 39.1489 43.7114C39.7278 42.9482 40.4741 42.3281 41.3305 41.8989C42.1868 41.4696 43.1302 41.2427 44.088 41.2355C44.5048 41.2361 44.9205 41.2789 45.3288 41.3633C45.3854 41.3734 45.4365 41.4039 45.4723 41.449C45.4872 41.4803 45.4925 41.5152 45.4875 41.5495C45.4825 41.5838 45.4675 41.6158 45.4443 41.6415C44.2532 43.3294 43.6016 45.3386 43.5753 47.4042C43.5491 49.4698 44.1495 51.4949 45.2973 53.2125C45.323 53.2513 45.3387 53.2959 45.3427 53.3423C45.3468 53.3886 45.3392 53.4353 45.3206 53.4779C45.3019 53.5206 45.2729 53.5579 45.2361 53.5864C45.1993 53.615 45.156 53.6338 45.11 53.6413C44.8307 53.6895 44.5482 53.717 44.2648 53.7235H44.0898C42.7227 53.7343 41.391 53.2889 40.3055 52.4578C39.2199 51.6268 38.4424 50.4575 38.096 49.135V49.135Z" fill="#02273D"/>
</svg>
