<svg width="108" height="108" viewBox="0 0 108 108" fill="none" xmlns="http://www.w3.org/2000/svg">
<circle cx="54" cy="54" r="54" fill="#FFEEB6"/>
<path d="M42.779 63.2399C42.779 59.4301 47.8732 58.4431 53.9107 58.4431C59.915 58.4431 65.0407 59.3951 65.0407 63.2049C65.0407 67.0146 59.95 67.9999 53.9107 67.9999C47.9065 67.9999 42.779 67.0479 42.779 63.2399ZM68.154 63.9399C68.2624 62.339 67.8739 60.7437 67.0417 59.3718C66.2095 57.9999 64.9741 56.9184 63.5042 56.2749C63.4879 56.2688 63.474 56.2574 63.4648 56.2425C63.4556 56.2276 63.4516 56.21 63.4535 56.1926C63.4575 56.1805 63.4649 56.1697 63.4748 56.1616C63.4847 56.1536 63.4968 56.1485 63.5095 56.1471C65.414 56.1129 67.3169 56.2795 69.1865 56.6441C69.9431 56.7037 70.6751 56.9407 71.323 57.3359C71.9709 57.7312 72.5166 58.2736 72.9157 58.9191C73.135 59.3751 73.2488 59.8745 73.2488 60.3804C73.2488 60.8863 73.135 61.3857 72.9157 61.8416C72.109 63.5916 69.5137 64.1499 68.504 64.2916H68.4567C68.4137 64.2899 68.3715 64.2795 68.3326 64.261C68.2937 64.2426 68.259 64.2165 68.2304 64.1843C68.2018 64.1522 68.18 64.1145 68.1663 64.0737C68.1525 64.033 68.1472 63.9898 68.1505 63.9469L68.154 63.9399ZM39.4977 64.2986C38.4897 64.1534 35.8927 63.5986 35.0877 61.8486C34.8671 61.3934 34.7524 60.8941 34.7524 60.3883C34.7524 59.8824 34.8671 59.3831 35.0877 58.9279C35.4853 58.2806 36.0301 57.7363 36.6779 57.3395C37.3256 56.9426 38.058 56.7044 38.8152 56.6441C40.6852 56.282 42.5878 56.116 44.4922 56.1489C44.5048 56.1499 44.5168 56.1546 44.5268 56.1624C44.5367 56.1702 44.5442 56.1807 44.5482 56.1926C44.5504 56.2101 44.5467 56.2277 44.5379 56.2429C44.529 56.258 44.5155 56.2699 44.4992 56.2766C43.0291 56.9196 41.7935 58.001 40.9615 59.3731C40.1294 60.7452 39.7417 62.3408 39.8512 63.9416C39.8577 63.9862 39.8546 64.0317 39.8422 64.075C39.8298 64.1184 39.8083 64.1585 39.7792 64.193C39.7501 64.2274 39.714 64.2552 39.6733 64.2746C39.6326 64.294 39.5883 64.3046 39.5432 64.3056L39.4977 64.2986ZM46.545 47.4076C46.545 45.4539 47.3211 43.5802 48.7026 42.1987C50.0841 40.8171 51.9579 40.041 53.9116 40.041C55.8654 40.041 57.7391 40.8171 59.1206 42.1987C60.5021 43.5802 61.2782 45.4539 61.2782 47.4076C61.2782 49.3614 60.5021 51.2351 59.1206 52.6166C57.7391 53.9981 55.8654 54.7743 53.9116 54.7743C51.9579 54.7743 50.0841 53.9981 48.7026 52.6166C47.3211 51.2351 46.545 49.3614 46.545 47.4076ZM63.7352 53.7234C63.4519 53.7161 63.1694 53.6887 62.89 53.6411C62.8442 53.6335 62.801 53.6144 62.7645 53.5858C62.7279 53.5572 62.6991 53.5198 62.6807 53.4772C62.6622 53.4346 62.6547 53.388 62.6589 53.3418C62.6631 53.2955 62.6787 53.251 62.7045 53.2124C63.8514 51.4947 64.4511 49.4699 64.4246 47.4047C64.398 45.3395 63.7465 43.3307 62.5557 41.6431C62.5334 41.6166 62.5189 41.5844 62.514 41.55C62.509 41.5157 62.5138 41.4806 62.5277 41.4489C62.5634 41.4028 62.6154 41.3721 62.673 41.3631C63.0806 41.2786 63.4957 41.2358 63.912 41.2354C64.8698 41.2426 65.8133 41.4695 66.6696 41.8988C67.5259 42.328 68.2722 42.9481 68.8511 43.7113C69.43 44.4744 69.8259 45.3603 70.0085 46.3006C70.191 47.2409 70.1553 48.2106 69.904 49.1349C69.5582 50.4592 68.7799 51.6301 67.6928 52.4617C66.6057 53.2933 65.2719 53.738 63.9032 53.7251L63.7352 53.7234ZM38.096 49.1349C37.8447 48.2106 37.809 47.2409 37.9915 46.3006C38.1741 45.3603 38.57 44.4744 39.1489 43.7113C39.7278 42.9481 40.4741 42.328 41.3304 41.8988C42.1867 41.4695 43.1302 41.2426 44.088 41.2354C44.5048 41.236 44.9205 41.2788 45.3287 41.3631C45.3854 41.3733 45.4365 41.4038 45.4722 41.4489C45.4871 41.4801 45.4924 41.5151 45.4875 41.5494C45.4825 41.5837 45.4674 41.6157 45.4442 41.6414C44.2532 43.3293 43.6016 45.3384 43.5753 47.4041C43.5491 49.4697 44.1494 51.4948 45.2972 53.2124C45.323 53.2512 45.3387 53.2958 45.3427 53.3421C45.3468 53.3885 45.3392 53.4352 45.3205 53.4778C45.3019 53.5205 45.2729 53.5578 45.2361 53.5863C45.1993 53.6149 45.156 53.6337 45.11 53.6411C44.8307 53.6894 44.5481 53.7169 44.2647 53.7234H44.0897C42.7227 53.7341 41.391 53.2888 40.3054 52.4577C39.2199 51.6267 38.4424 50.4574 38.096 49.1349Z" fill="#02273D"/>
</svg>
