<svg width="108" height="108" viewBox="0 0 108 108" fill="none" xmlns="http://www.w3.org/2000/svg">
<circle cx="54" cy="54" r="54" fill="#FFCBC3"/>
<path d="M54.1418 71.4999C53.9267 71.5005 53.7147 71.4488 53.524 71.3494L47.224 68.0891C45.6164 67.2971 44.1661 66.2197 42.9435 64.9094C40.5611 62.2838 39.2281 58.8734 39.1985 55.3281L39.125 43.7169C39.127 43.056 39.3353 42.4121 39.7209 41.8753C40.1064 41.3385 40.65 40.9355 41.2757 40.7226L52.8468 36.6854C53.543 36.4419 54.3007 36.4382 54.9993 36.6749L66.614 40.5721C67.2436 40.7773 67.793 41.1747 68.1851 41.7083C68.5771 42.2419 68.7921 42.885 68.7998 43.5471L68.875 55.1584C68.8937 58.7017 67.6073 62.1279 65.2613 64.7834C64.0546 66.1031 62.6185 67.1929 61.0227 67.9999L54.7787 71.3424C54.5854 71.4438 54.3706 71.4978 54.1523 71.4999H54.1418ZM49.45 52.2621C49.0973 52.2605 48.7583 52.3982 48.5068 52.6454C48.3854 52.7641 48.2893 52.906 48.224 53.0626C48.1587 53.2192 48.1257 53.3874 48.1268 53.5571C48.128 53.7268 48.1633 53.8945 48.2307 54.0503C48.298 54.206 48.3961 54.3466 48.519 54.4636L51.872 57.6889C52.1201 57.9279 52.4515 58.0609 52.796 58.0599H52.8082C53.1574 58.0593 53.4923 57.9217 53.741 57.6766L60.566 50.9496C60.6874 50.8311 60.7837 50.6893 60.8491 50.5327C60.9146 50.3761 60.9478 50.208 60.9468 50.0383C60.9458 49.8686 60.9107 49.7008 60.8434 49.545C60.7762 49.3892 60.6783 49.2485 60.5555 49.1314C60.3036 48.891 59.9683 48.7576 59.6201 48.7592C59.2719 48.7609 58.9379 48.8974 58.6882 49.1401L52.789 54.9536L50.3757 52.6331C50.127 52.3941 49.795 52.2611 49.45 52.2621Z" fill="#02273D"/>
</svg>
